<?xml version="1.0" encoding="iso-8859-1"?>
<!-- Generator: Adobe Illustrator 19.0.0, SVG Export Plug-In . SVG Version: 6.00 Build 0)  -->
<svg version="1.1" id="Capa_1" xmlns="http://www.w3.org/2000/svg" xmlns:xlink="http://www.w3.org/1999/xlink" x="0px" y="0px"
	 viewBox="0 0 488 488" style="enable-background:new 0 0 488 488;" xml:space="preserve">
<g>
	<path style="fill:#FFA64D;" d="M228,248H52v-80c0-22.056,17.944-40,40-40h96c22.056,0,40,17.944,40,40V248z"/>
	<path style="fill:#FFA64D;" d="M436,248H260v-80c0-22.056,17.944-40,40-40h96c22.056,0,40,17.944,40,40V248z"/>
</g>
<g>
	<path style="fill:#333333;" d="M140,144c39.696,0,72-32.304,72-72S179.696,0,140,0S68,32.304,68,72S100.304,144,140,144z M140,16
		c30.88,0,56,25.12,56,56s-25.12,56-56,56s-56-25.12-56-56S109.12,16,140,16z"/>
	<path style="fill:#333333;" d="M140,112c8.416,0,16.472-2.584,23.304-7.488l-9.328-13C149.88,94.448,145.048,96,140,96
		c-13.232,0-24-10.768-24-24s10.768-24,24-24s24,10.768,24,24c0,4.208-1.104,8.344-3.184,11.96l13.856,8
		C178.16,85.92,180,79.016,180,72c0-22.056-17.944-40-40-40s-40,17.944-40,40S117.944,112,140,112z"/>
	<path style="fill:#333333;" d="M140,392c-17.648,0-32,14.352-32,32s14.352,32,32,32s32-14.352,32-32S157.648,392,140,392z M140,440
		c-8.824,0-16-7.176-16-16s7.176-16,16-16s16,7.176,16,16S148.824,440,140,440z"/>
	<path style="fill:#333333;" d="M204.992,279.936l-1.984-15.872L180,266.936V248h-16v20.936l-48,6V248h-16v28.936l-24.992,3.128
		l1.984,15.872L100,293.064v15.88l-24.992,3.128l1.984,15.872l23.008-2.88v15.88l-24.992,3.128l1.984,15.872l23.008-2.88v17.056
		C85.392,385.864,76,403.84,76,424c0,35.288,28.712,64,64,64s64-28.712,64-64c0-20.16-9.392-38.144-24-49.88v-27.056l24.992-3.128
		l-1.984-15.872L180,330.936v-15.88l24.992-3.128l-1.984-15.872L180,298.936v-15.88L204.992,279.936z M188,424
		c0,26.472-21.528,48-48,48s-48-21.528-48-48s21.528-48,48-48S188,397.528,188,424z M164,364.712
		c-7.416-3.016-15.512-4.712-24-4.712s-16.584,1.696-24,4.712v-9.648l48-6V364.712z M164,332.936l-48,6v-15.88l48-6V332.936z
		 M164,300.936l-48,6v-15.88l48-6V300.936z"/>
	<rect x="52" y="208" style="fill:#333333;" width="128" height="16"/>
	<rect x="196" y="208" style="fill:#333333;" width="32" height="16"/>
	<path style="fill:#333333;" d="M348,144c39.696,0,72-32.304,72-72S387.696,0,348,0s-72,32.304-72,72S308.304,144,348,144z M348,16
		c30.88,0,56,25.12,56,56s-25.12,56-56,56s-56-25.12-56-56S317.12,16,348,16z"/>
	<path style="fill:#333333;" d="M348,112c22.056,0,40-17.944,40-40s-17.944-40-40-40s-40,17.944-40,40S325.944,112,348,112z M348,48
		c13.232,0,24,10.768,24,24s-10.768,24-24,24s-24-10.768-24-24S334.768,48,348,48z"/>
	<path style="fill:#333333;" d="M348,392c-17.648,0-32,14.352-32,32s14.352,32,32,32c6.04,0,11.936-1.696,17.032-4.904l-8.52-13.536
		c-2.544,1.592-5.488,2.44-8.512,2.44c-8.824,0-16-7.176-16-16s7.176-16,16-16s16,7.176,16,16c0,2.064-0.384,4.056-1.136,5.936
		l14.848,5.96c1.52-3.784,2.288-7.784,2.288-11.896C380,406.352,365.648,392,348,392z"/>
	<path style="fill:#333333;" d="M412.992,279.936l-1.984-15.872L388,266.936V248h-16v20.936l-48,6V248h-16v28.936l-24.992,3.128
		l1.984,15.872L308,293.064v15.88l-24.992,3.128l1.984,15.872l23.008-2.88v15.88l-24.992,3.128l1.984,15.872l23.008-2.88v17.056
		c-14.608,11.744-24,29.72-24,49.88c0,35.288,28.712,64,64,64s64-28.712,64-64c0-20.16-9.392-38.144-24-49.88v-27.056l24.992-3.128
		l-1.984-15.872L388,330.936v-15.88l24.992-3.128l-1.984-15.872L388,298.936v-15.88L412.992,279.936z M396,424
		c0,26.472-21.528,48-48,48s-48-21.528-48-48s21.528-48,48-48S396,397.528,396,424z M372,364.712
		c-7.416-3.016-15.512-4.712-24-4.712s-16.584,1.696-24,4.712v-9.648l48-6V364.712z M372,332.936l-48,6v-15.88l48-6V332.936z
		 M372,300.936l-48,6v-15.88l48-6V300.936z"/>
	<rect x="260" y="208" style="fill:#333333;" width="128" height="16"/>
	<rect x="404" y="208" style="fill:#333333;" width="32" height="16"/>
</g>
<g>
</g>
<g>
</g>
<g>
</g>
<g>
</g>
<g>
</g>
<g>
</g>
<g>
</g>
<g>
</g>
<g>
</g>
<g>
</g>
<g>
</g>
<g>
</g>
<g>
</g>
<g>
</g>
<g>
</g>
</svg>
