<?xml version="1.0" encoding="iso-8859-1"?>
<!-- Generator: Adobe Illustrator 19.0.0, SVG Export Plug-In . SVG Version: 6.00 Build 0)  -->
<svg version="1.1" id="Capa_1" xmlns="http://www.w3.org/2000/svg" xmlns:xlink="http://www.w3.org/1999/xlink" x="0px" y="0px"
	 viewBox="0 0 496 496" style="enable-background:new 0 0 496 496;" xml:space="preserve">
<g>
	<rect x="120" y="200" style="fill:#FFA64D;" width="48" height="96"/>
	<rect x="328" y="200" style="fill:#FFA64D;" width="48" height="96"/>
	<rect x="200" y="120" style="fill:#FFA64D;" width="96" height="48"/>
	<rect x="200" y="328" style="fill:#FFA64D;" width="96" height="48"/>
</g>
<g>
	<path style="fill:#333333;" d="M248,0C111.248,0,0,111.256,0,248s111.248,248,248,248s248-111.256,248-248S384.752,0,248,0z
		 M443.52,372.648c-15.072,1.912-50.864,4.936-78.256-4.568c9.672-9.448,18.112-20.088,25.296-31.616
		c2.456,0.2,4.928,0.32,7.416,0.32c25.456,0,52.432-9.736,70.992-18.144C462.808,337.856,454.192,355.96,443.52,372.648z M248,400
		c-83.816,0-152-68.184-152-152S164.184,96,248,96s152,68.184,152,152S331.816,400,248,400z M136.16,373.016
		c-6.96,26.696-1.656,58.576,3.888,80.248c-17.728-9.36-34.112-20.92-48.76-34.36c0.72-15.16,3.952-50.88,18.056-76.208
		C117.016,353.88,126.088,363.992,136.16,373.016z M150.128,384.272c10.96,7.896,22.856,14.52,35.568,19.616
		c2.696,27.52,19.072,56.184,31.144,73.96c-20.128-2.712-39.448-7.984-57.608-15.536
		C154.736,447.856,145.488,412.968,150.128,384.272z M81.904,271.936c-22.512,16.08-39.176,44.632-48.544,64
		c-7.48-18.184-12.68-37.528-15.32-57.672c10.248-11.104,35.704-36.448,62.8-46.824C80.304,236.896,80,242.408,80,248
		C80,256.144,80.784,264.096,81.904,271.936z M83.536,213.736c-26.584,7.464-51.912,28.528-67.304,43.48
		C16.112,254.16,16,251.088,16,248c0-17.24,1.952-34.024,5.536-50.2c13.456-6.936,46.208-22.088,75.256-22.52
		C90.936,187.392,86.344,200.224,83.536,213.736z M124.224,51.92c16.688-10.576,34.784-19.104,53.976-25.176
		c12.712,8.16,42.232,28.92,57.152,53.896c-13.816,1.04-27.16,3.688-39.848,7.872C175.792,69.216,144.896,57.792,124.224,51.92z
		 M359.84,122.984c6.96-26.696,1.656-58.576-3.888-80.248c17.728,9.36,34.112,20.92,48.76,34.36
		c-0.72,15.16-3.952,50.88-18.056,76.208C378.984,142.12,369.912,132.008,359.84,122.984z M345.872,111.728
		c-10.96-7.896-22.856-14.52-35.568-19.616c-2.696-27.52-19.072-56.184-31.144-73.96c20.128,2.712,39.448,7.984,57.608,15.536
		C341.264,48.144,350.512,83.032,345.872,111.728z M414.096,224.064c22.512-16.08,39.176-44.632,48.544-64
		c7.48,18.184,12.68,37.528,15.32,57.672c-10.248,11.104-35.704,36.448-62.8,46.824c0.536-5.456,0.84-10.968,0.84-16.56
		C416,239.856,415.216,231.904,414.096,224.064z M412.464,282.264c26.584-7.464,51.912-28.528,67.304-43.48
		c0.12,3.056,0.232,6.128,0.232,9.216c0,17.24-1.952,34.024-5.536,50.2c-13.456,6.936-46.224,22.096-75.256,22.528
		C405.064,308.608,409.656,295.776,412.464,282.264z M453.728,140.96c-5.864,13.992-21.168,46.56-43.128,65.544
		c-3.408-13.328-8.24-26.08-14.624-37.928c15.576-22.784,21.448-55.176,23.632-76.544
		C432.984,106.736,444.448,123.192,453.728,140.96z M258.112,16.256c9.16,12.032,29.768,41.592,35.248,70.136
		c-12.824-3.608-26.24-5.696-40.096-6.128c-11.936-24.976-37.176-46.344-54.616-58.928C214.56,17.872,231.064,16,248,16
		C251.392,16,254.752,16.112,258.112,16.256z M106.92,64.008c14.832,3.352,49.48,12.76,71.952,31.048
		c-12.416,5.64-24.024,12.72-34.616,21.064c-6.688-3.048-14.24-5.512-22.616-7.264l-3.28,15.656c4.424,0.928,8.568,2.064,12.4,3.384
		c-9.688,9.456-18.144,20.12-25.336,31.664c-27.56-2.208-58.032,8.568-78.4,17.8c6.16-19.216,14.776-37.328,25.448-54.008
		c10.136-1.288,30.2-3.152,50.728-1.12l1.576-15.92c-14.632-1.448-28.936-1.048-40.128-0.224
		C76.896,90.32,91.096,76.168,106.92,64.008z M42.272,355.04c5.864-13.992,21.168-46.56,43.128-65.544
		c3.408,13.328,8.24,26.08,14.624,37.928c-15.576,22.784-21.448,55.176-23.632,76.544C63.016,389.264,51.552,372.808,42.272,355.04z
		 M237.888,479.744c-9.16-12.032-29.768-41.592-35.248-70.136c12.808,3.6,26.224,5.688,40.064,6.128
		c2.952,6.176,6.808,12.448,11.6,18.704l12.704-9.72c-2.408-3.144-4.512-6.272-6.36-9.36c13.816-1.04,27.168-3.688,39.856-7.872
		c19.712,19.304,50.608,30.728,71.28,36.592c-16.688,10.568-34.776,19.104-53.968,25.176c-8.88-5.696-26.264-17.72-41.064-33.208
		l-11.56,11.056c10.704,11.208,22.616,20.688,32.176,27.568C281.44,478.128,264.936,480,248,480
		C244.608,480,241.248,479.888,237.888,479.744z M389.08,431.992c-14.832-3.352-49.48-12.76-71.952-31.048
		c12.432-5.64,24.056-12.736,34.656-21.096c18.408,8.416,40.688,10.872,60.088,10.872c6.976,0,13.536-0.32,19.432-0.768
		C419.08,405.712,404.888,419.848,389.08,431.992z"/>
	<path style="fill:#333333;" d="M344.84,304H384V192h-39.16c-9.84-17.024-23.824-31-40.84-40.848V112H192v39.152
		C174.976,161,161,174.976,151.16,192H112v112h39.16c9.84,17.024,23.824,31,40.84,40.848V384h112v-39.152
		C321.024,335,335,321.024,344.84,304z M336,240h32v16h-32V240z M336,288v-16h32v16H336z M368,224h-32v-16h32V224z M240,160v-32h16
		v32H240z M272,128h16v32h-16V128z M208,128h16v32h-16V128z M160,256h-32v-16h32V256z M160,208v16h-32v-16H160z M128,272h32v16h-32
		V272z M256,336v32h-16v-32H256z M224,368h-16v-32h16V368z M288,368h-16v-32h16V368z M304,325.88V320H192v5.88
		c-8.448-6.064-15.816-13.432-21.88-21.88H176V192h-5.88c6.064-8.448,13.432-15.816,21.88-21.88V176h112v-5.88
		c8.448,6.064,15.816,13.432,21.88,21.88H320v112h5.88C319.816,312.448,312.448,319.816,304,325.88z"/>
	<path style="fill:#333333;" d="M248,208c-22.056,0-40,17.944-40,40s17.944,40,40,40s40-17.944,40-40S270.056,208,248,208z M248,272
		c-13.232,0-24-10.768-24-24s10.768-24,24-24s24,10.768,24,24S261.232,272,248,272z"/>
	<rect x="240" y="32" style="fill:#333333;" width="16" height="16"/>
	
		<rect x="168.871" y="44.539" transform="matrix(-0.9397 0.3419 -0.3419 -0.9397 361.0435 41.4297)" style="fill:#333333;" width="15.999" height="15.991"/>
	
		<rect x="106.29" y="80.645" transform="matrix(-0.7662 0.6426 -0.6426 -0.7662 258.8228 83.1219)" style="fill:#333333;" width="16" height="16"/>
	
		<rect x="59.867" y="135.999" transform="matrix(-0.4999 0.8661 -0.8661 -0.4999 226.5098 157.2038)" style="fill:#333333;" width="16" height="16"/>
	
		<rect x="35.149" y="203.91" transform="matrix(-0.1734 0.9848 -0.9848 -0.1734 259.3264 206.1566)" style="fill:#333333;" width="15.999" height="15.991"/>
	
		<rect x="35.169" y="276.134" transform="matrix(-0.9849 0.1734 -0.1734 -0.9849 134.9431 556.4808)" style="fill:#333333;" width="15.993" height="16.001"/>
	
		<rect x="59.83" y="344.015" transform="matrix(-0.8661 0.4999 -0.4999 -0.8661 302.5464 622.9842)" style="fill:#333333;" width="16" height="16"/>
	
		<rect x="106.343" y="399.346" transform="matrix(-0.6426 0.7662 -0.7662 -0.6426 499.9285 581.4965)" style="fill:#333333;" width="16" height="16"/>
	
		<rect x="168.84" y="435.444" transform="matrix(-0.3419 0.9397 -0.9397 -0.3419 654.0153 428.884)" style="fill:#333333;" width="15.991" height="15.999"/>
	<rect x="240" y="448" style="fill:#333333;" width="16" height="16"/>
	
		<rect x="311.123" y="435.424" transform="matrix(-0.9397 0.3419 -0.3419 -0.9397 770.624 751.0038)" style="fill:#333333;" width="15.999" height="15.991"/>
	
		<rect x="373.688" y="399.332" transform="matrix(-0.7662 0.6426 -0.6426 -0.7662 935.8895 474.1568)" style="fill:#333333;" width="16" height="16"/>
	
		<rect x="420.144" y="343.966" transform="matrix(-0.4999 0.8661 -0.8661 -0.4999 947.0038 157.1005)" style="fill:#333333;" width="16" height="16"/>
	
		<rect x="444.803" y="276.142" transform="matrix(-0.1734 0.9848 -0.9848 -0.1734 811.1549 -112.5336)" style="fill:#333333;" width="15.999" height="15.991"/>
	
		<rect x="444.825" y="203.889" transform="matrix(-0.9849 0.1734 -0.1734 -0.9849 935.5234 342.0547)" style="fill:#333333;" width="15.993" height="16.001"/>
	
		<rect x="420.167" y="136.003" transform="matrix(-0.8661 0.4999 -0.4999 -0.8661 870.983 54.6843)" style="fill:#333333;" width="16" height="16"/>
	
		<rect x="373.672" y="80.636" transform="matrix(-0.6426 0.7662 -0.7662 -0.6426 694.848 -146.8445)" style="fill:#333333;" width="16" height="16"/>
	
		<rect x="311.139" y="44.567" transform="matrix(-0.3419 0.9397 -0.9397 -0.3419 477.6486 -229.3612)" style="fill:#333333;" width="15.991" height="15.999"/>
</g>
<g>
</g>
<g>
</g>
<g>
</g>
<g>
</g>
<g>
</g>
<g>
</g>
<g>
</g>
<g>
</g>
<g>
</g>
<g>
</g>
<g>
</g>
<g>
</g>
<g>
</g>
<g>
</g>
<g>
</g>
</svg>
