<?xml version="1.0" encoding="iso-8859-1"?>
<!-- Generator: Adobe Illustrator 19.0.0, SVG Export Plug-In . SVG Version: 6.00 Build 0)  -->
<svg version="1.1" id="Capa_1" xmlns="http://www.w3.org/2000/svg" xmlns:xlink="http://www.w3.org/1999/xlink" x="0px" y="0px"
	 viewBox="0 0 496 496" style="enable-background:new 0 0 496 496;" xml:space="preserve">
<g>
	<path style="fill:#FFA64D;" d="M160,272c-13.232,0-24-10.768-24-24s10.768-24,24-24s24,10.768,24,24S173.232,272,160,272z"/>
	<path style="fill:#FFA64D;" d="M336,272c-13.232,0-24-10.768-24-24s10.768-24,24-24s24,10.768,24,24S349.232,272,336,272z"/>
</g>
<g>
	<path style="fill:#333333;" d="M480,448V0h-48v28.552L411.088,16H84.912L64,28.552V0H16v448H0v48h80v-48H64v-80h40
		c0,17.648,14.352,32,32,32s32-14.352,32-32v-32h160v32c0,17.648,14.352,32,32,32s32-14.352,32-32h40v80h-16v48h80v-48H480z M464,16
		v400h-16V16H464z M360,288v16h32c4.416,0,8,3.584,8,8s-3.584,8-8,8H104c-4.416,0-8-3.584-8-8s3.584-8,8-8h240v-16H120v-58.88
		c0-3.8,2.704-7.104,6.432-7.848L160,214.56V144c0-4.408,3.584-8,8-8h160c4.416,0,8,3.592,8,8v70.56l33.568,6.712
		c3.728,0.744,6.432,4.048,6.432,7.848V288H360z M372.712,205.584L352,201.44V144c0-13.232-10.768-24-24-24H168
		c-13.232,0-24,10.768-24,24v57.44l-20.712,4.144C112.112,207.816,104,217.712,104,229.12V232H64V84.528L98.216,64h299.56
		L432,84.528V232h-40v-2.88C392,217.712,383.888,207.816,372.712,205.584z M89.352,32h317.296L432,47.216v18.656L402.216,48H93.784
		L64,65.872V47.216L89.352,32z M48,16v400H32V16H48z M64,480H16v-16h48V480z M32,448v-16h16v16H32z M64,352V248h40v40
		c-13.232,0-24,10.768-24,24s10.768,24,24,24v16H64z M152,368c0,8.824-7.176,16-16,16s-16-7.176-16-16v-32h32V368z M360,384
		c-8.824,0-16-7.176-16-16v-32h32v32C376,376.824,368.824,384,360,384z M392,352v-16c13.232,0,24-10.768,24-24s-10.768-24-24-24v-40
		h40v104H392z M448,432h16v16h-16V432z M480,480h-48v-16h48V480z"/>
	<path style="fill:#333333;" d="M176,208h144v-56H176V208z M192,168h112v24H192V168z"/>
	<rect x="200" y="256" style="fill:#333333;" width="96" height="16"/>
	<rect x="200" y="224" style="fill:#333333;" width="96" height="16"/>
</g>
<g>
	<rect x="448" y="384" style="fill:#FFA64D;" width="16" height="16"/>
	<rect x="448" y="352" style="fill:#FFA64D;" width="16" height="16"/>
	<rect x="32" y="384" style="fill:#FFA64D;" width="16" height="16"/>
	<rect x="32" y="352" style="fill:#FFA64D;" width="16" height="16"/>
</g>
<g>
</g>
<g>
</g>
<g>
</g>
<g>
</g>
<g>
</g>
<g>
</g>
<g>
</g>
<g>
</g>
<g>
</g>
<g>
</g>
<g>
</g>
<g>
</g>
<g>
</g>
<g>
</g>
<g>
</g>
</svg>
