<?xml version="1.0" encoding="iso-8859-1"?>
<!-- Generator: Adobe Illustrator 19.0.0, SVG Export Plug-In . SVG Version: 6.00 Build 0)  -->
<svg version="1.1" id="Capa_1" xmlns="http://www.w3.org/2000/svg" xmlns:xlink="http://www.w3.org/1999/xlink" x="0px" y="0px"
	 viewBox="0 0 496 496" style="enable-background:new 0 0 496 496;" xml:space="preserve">
<g>
	<rect x="128" y="104" style="fill:#FFA64D;" width="128" height="96"/>
	<path style="fill:#FFA64D;" d="M392,80c-13.232,0-24,10.768-24,24v96c0,13.232,10.768,24,24,24h96V80H392z"/>
</g>
<g>
	<path style="fill:#333333;" d="M456,48h-64v-8c0-22.056-17.944-40-40-40H224c-22.056,0-40,17.944-40,40v8h-24
		c-19.312,0-35.472,13.768-39.192,32H80c-13.232,0-24,10.768-24,24v8H24c-13.232,0-24,10.768-24,24v32c0,13.232,10.768,24,24,24h32
		v8c0,13.232,10.768,24,24,24h40.808c3.72,18.232,19.872,32,39.192,32h89.448l41.56,207.848C294.736,482.48,311.232,496,330.232,496
		H384c22.056,0,40-17.944,40-40v-48h16c13.232,0,24-10.768,24-24v-48c0-13.232-10.768-24-24-24h-16v-48c0-4.408,3.584-8,8-8h24
		c22.056,0,40-17.944,40-40V88C496,65.944,478.056,48,456,48z M200,40c0-13.232,10.768-24,24-24h128c13.232,0,24,10.768,24,24v8H200
		V40z M248,128H136v-16h112V128z M136,176h80v-16h-80v-16h112v16h-16v16h16v16H136V176z M160,64h88v32H136v-8
		C136,74.768,146.768,64,160,64z M24,176c-4.416,0-8-3.592-8-8v-32c0-4.408,3.584-8,8-8h32v48H24z M72,200v-96c0-4.408,3.584-8,8-8
		h40v112H80C75.584,208,72,204.408,72,200z M136,216v-8h112v32h-88C146.768,240,136,229.232,136,216z M384,480h-53.768
		c-11.408,0-21.304-8.112-23.536-19.296L270.552,280h14.088l34.224,171.144C320.36,458.592,326.96,464,334.552,464H376
		c8.824,0,16-7.176,16-16V280h16v176C408,469.232,397.232,480,384,480z M300.96,280H376v168h-41.448L300.96,280z M440,328
		c4.416,0,8,3.592,8,8v48c0,4.408-3.584,8-8,8h-16v-64H440z M480,216c0,13.232-10.768,24-24,24h-24c-13.232,0-24,10.768-24,24
		H267.352L264,247.224V64h192c13.232,0,24,10.768,24,24V216z"/>
	<rect x="400" y="112" style="fill:#333333;" width="64" height="16"/>
	<rect x="400" y="144" style="fill:#333333;" width="64" height="16"/>
	<rect x="400" y="176" style="fill:#333333;" width="64" height="16"/>
</g>
<g>
</g>
<g>
</g>
<g>
</g>
<g>
</g>
<g>
</g>
<g>
</g>
<g>
</g>
<g>
</g>
<g>
</g>
<g>
</g>
<g>
</g>
<g>
</g>
<g>
</g>
<g>
</g>
<g>
</g>
</svg>
