<svg id="Capa_1" enable-background="new 0 0 512 512" height="512" viewBox="0 0 512 512" width="512" xmlns="http://www.w3.org/2000/svg"><g><path d="m240.86 433.5h-162.69l1.32 10.26.003.005v55.85c0 6.84 5.545 12.385 12.385 12.385h135.277c6.84 0 12.385-5.545 12.385-12.385v-55.85z" fill="#fe4fb7"/><g><path d="m239.537 443.762v56.177c0 6.663-5.397 12.06-12.059 12.06h-27.343c6.663 0 12.06-5.397 12.06-12.06v-56.177z" fill="#fe2aa8"/><path d="m191.374 512h-63.717v-22.175c0-6.596 5.347-11.943 11.943-11.943h39.831c6.596 0 11.943 5.347 11.943 11.943z" fill="#efedef"/><path d="m191.377 489.516v22.483h-16.56v-22.483c0-6.429-5.211-11.631-11.641-11.631h16.56c6.429 0 11.641 5.202 11.641 11.631z" fill="#e5e1e5"/><path d="m159.516 0h-107.479c-4.517 0-8.08 4.006-7.742 8.703l35.198 435.062h80.023 80.023l35.198-435.062c.338-4.697-3.225-8.703-7.742-8.703z" fill="#feaee1"/><path d="m274.741 8.699-35.204 435.063h-27.343l35.204-435.063c.331-4.695-3.225-8.699-7.744-8.699h27.343c4.51 0 8.075 4.004 7.744 8.699z" fill="#fe93d3"/><path d="m163.088 178.742c-1.932-1.904-5.213-1.904-7.145 0-12.043 11.87-49.886 52.973-40.525 92.474 3.042 12.836 12.079 24.414 25.916 31.434l.152.077c11.233 5.679 24.825 5.679 36.058 0l.152-.077c13.838-7.02 22.875-18.599 25.916-31.434 9.362-39.5-28.481-80.604-40.524-92.474z" fill="#efedef"/><path d="m203.611 271.217c-3.039 12.839-12.079 24.411-25.911 31.435l-.156.078c-8.582 4.335-18.537 5.367-27.772 3.069 2.854-.711 5.64-1.734 8.29-3.069l.156-.078c13.832-7.023 22.872-18.596 25.911-31.435 8.085-34.123-19.054-69.454-34.347-86.082 2.406-2.62 4.53-4.773 6.166-6.39 1.929-1.909 5.212-1.909 7.14 0 12.04 11.864 49.885 52.972 40.523 92.472z" fill="#e5e1e5"/><path d="m274.734 8.344-2.475 33.003h-225.486l-2.475-33.003c-.338-4.504 3.225-8.344 7.741-8.344h214.953c4.517 0 8.08 3.84 7.742 8.344z" fill="#fe4fb7"/><path d="m274.751 7.647v.107c0 .195 0 .39-.02.594l-2.474 33.003h-27.207l2.348-32.652c.331-4.695-3.225-8.699-7.744-8.699h27.343c.273 0 .536.01.799.039 3.789.409 6.741 3.653 6.955 7.608z" fill="#fe2aa8"/><g><path d="m453.113 392.815h-214.954v-49.17l.966-4.895 213.063-.187.925 5.082z" fill="#7ca1b1"/><path d="m428.134 343.645h24.98v40.135h-24.98z" fill="#678d98"/><path d="m445.037 512h-198.802c-12.531 0-22.689-10.158-22.689-22.689v-98.59c0-3.833 3.108-6.941 6.941-6.941h230.299c3.833 0 6.941 3.108 6.941 6.941v98.59c-.001 12.531-10.159 22.689-22.69 22.689z" fill="#fdb441"/><path d="m440.623 383.775h19.946c3.951 0 7.159 3.208 7.159 7.169v97.648c0 12.925-10.481 23.406-23.406 23.406h-27.295c12.926 0 23.406-10.481 23.406-23.406v-97.648z" fill="#fea613"/><path d="m238.159 343.645c-.061-2.823-.105-5.647-.135-8.471-.093-8.971 2.156-16.819 8.412-23.496 7.073-7.549 20.206-13.438 30.215-15.68 15.635-3.503 31.672-4.637 47.483-7.066 11.829-1.817 23.669-4.408 34.737-9.059 9.358-3.933 18.029-9.394 27.043-14.202 2.771-1.478 6.255-.212 7.297 2.751.478 1.361 1.021 2.696 1.661 3.987 2.239 4.51 4.435 9.125 7.7 13 1.753 2.081 3.706 3.984 5.741 5.788 8.583 7.607 18.304 13.774 27.794 20.22 1.394.947 2.782 1.901 4.161 2.87 7.486 5.26 12.356 12.488 12.719 21.819.02.518.28 7.54.127 7.54-.01-.001-214.84-.001-214.955-.001z" fill="#fee8c7"/><path d="m453.11 343.647s-9.707 0-24.995 0c-.041-2.053-.134-4.591-.155-4.9-.485-12.358-9.872-18.31-19.754-23.551-12.492-6.643-21.508-16.278-30.658-27.151-3.364-3.979-5.593-8.756-7.899-13.386 5.449-2.91 10.795-6.068 16.265-8.989 2.775-1.475 6.251-.217 7.293 2.754.485 1.351 1.021 2.692 1.661 3.982 2.238 4.508 4.436 9.129 7.706 12.998 1.754 2.084 3.703 3.982 5.736 5.787 8.583 7.613 18.31 13.782 27.801 20.229 1.393.939 2.775 1.898 4.157 2.868 7.489 5.261 12.358 12.482 12.719 21.818.02.516.278 7.541.123 7.541z" fill="#fedba6"/><path d="m413.753 474.972h-136.234c-4.387 0-7.944-3.557-7.944-7.944v-38.276c0-4.387 3.557-7.944 7.944-7.944h136.235c4.387 0 7.944 3.557 7.944 7.944v38.276c-.001 4.387-3.557 7.944-7.945 7.944z" fill="#efedef"/><path d="m421.699 428.999v37.776c0 4.529-3.672 8.201-8.201 8.201h-21.312c4.518 0 8.191-3.672 8.191-8.201v-37.776c0-4.518-3.672-8.191-8.191-8.191h21.312c4.529 0 8.201 3.672 8.201 8.191z" fill="#e5e1e5"/></g></g></g></svg>