<svg id="icons" enable-background="new 0 0 64 64" height="512" viewBox="0 0 64 64" width="512" xmlns="http://www.w3.org/2000/svg"><path d="m58 15.505h-6-6-6-6-6-6-6-6-3v30h3 22 31v-30z" fill="#ed5565"/><path d="m13 12.505-3 3h-3v-3z" fill="#545c66"/><path d="m37 12.505-3 3h-6l3-3z" fill="#545c66"/><path d="m31 12.505-3 3h-6l3-3z" fill="#656d78"/><path d="m25 12.505-3 3h-6l3-3z" fill="#545c66"/><path d="m10 45.505h22v3h-22z" fill="#a0d468"/><path d="m7 45.505h3v3h-3z" fill="#a0d468"/><path d="m43 12.505-3 3h-6l3-3z" fill="#656d78"/><path d="m7 15.505v30h-1-3v-24.941-5.059h3z" fill="#ccd1d9"/><path d="m19 12.505-3 3h-6l3-3z" fill="#656d78"/><path d="m61 12.505-3 3h-6l2.99-3z" fill="#545c66"/><path d="m49 12.505-3 3h-6l3-3z" fill="#545c66"/><path d="m54.99 12.505-2.99 3h-6l3-3z" fill="#656d78"/><path d="m63 12.505v3h-5l3-3z" fill="#656d78"/><path d="m21.99 19.495c1.87 0 3.76.479 5.5 1.479.85.49 1.62 1.08 2.28 1.761 0 0-2.83.02-2.841 2.84-.01 2.67-2.55 2.81-2.81 2.819-.54-.55-1.3-.89-2.13-.89 0 0 1.99-1.99 0-3.99s0-4 0-4v-.019z" fill="#545c66"/><path d="m19.88 32.625c.54.54 1.29.87 2.11.87 0 0-1.99 1.99 0 4 1.91 1.92.16 3.85.01 4.01-1.87 0-3.77-.48-5.5-1.48-.85-.489-1.61-1.079-2.27-1.739.21-.011 2.81-.12 2.819-2.83.01-2.82 2.82-2.82 2.82-2.82z" fill="#545c66"/><path d="m18.99 30.515c0 .83.34 1.57.89 2.11l-.01.01s-2.811 0-2.82 2.82c-.01 2.71-2.609 2.819-2.819 2.83-2.091-2.08-3.23-4.891-3.24-7.771h.009s2 1.98 4 0c2-1.99 3.99.001 3.99.001z" fill="#434a54"/><path d="m29.771 38.274c-.011-.26-.171-2.81-2.841-2.829-2.819-.011-2.83-2.82-2.83-2.82.551-.53.881-1.28.891-2.101.16.15 2.06 1.891 3.979-.01 2.011-1.99 4.021 0 4.021 0 0 1.86-.47 3.75-1.47 5.48-.491.851-1.081 1.621-1.75 2.28z" fill="#545c66"/><path d="m21.99 37.495c-1.99-2.01 0-4 0-4 .83 0 1.569-.33 2.109-.87 0 0 .011 2.81 2.83 2.82 2.67.02 2.83 2.569 2.841 2.829-2.08 2.091-4.9 3.221-7.771 3.23.151-.159 1.901-2.089-.009-4.009z" fill="#434a54"/><path d="m24.12 28.395c.54.54.87 1.28.87 2.11v.02c-.01.82-.34 1.57-.891 2.101-.54.54-1.279.87-2.109.87-.82 0-1.57-.33-2.11-.87-.55-.54-.89-1.28-.89-2.11v-.01c0-.83.34-1.58.88-2.12s1.3-.88 2.12-.88c.83-.001 1.59.339 2.13.889z" fill="#656d78"/><path d="m18.99 30.505v.01s-1.99-1.99-3.99 0c-2 1.98-4 0-4 0h-.01c0-1.88.479-3.779 1.479-5.52.49-.851 1.07-1.61 1.74-2.271l.01.011s.011 2.819 2.83 2.829c2.82.011 2.82 2.82 2.82 2.82-.539.541-.879 1.291-.879 2.121z" fill="#545c66"/><path d="m32.99 30.515s-2.01-1.99-4.021 0c-1.92 1.9-3.819.16-3.979.01 0-.01 0-.01 0-.02 0-.83-.33-1.57-.87-2.11.26-.01 2.8-.149 2.81-2.819.011-2.82 2.841-2.84 2.841-2.84 2.089 2.069 3.219 4.899 3.219 7.779z" fill="#434a54"/><path d="m21.99 23.515c1.99 2 0 3.99 0 3.99-.82 0-1.58.34-2.12.88 0 0 0-2.81-2.82-2.82-2.819-.01-2.83-2.829-2.83-2.829l-.01-.011c2.07-2.09 4.9-3.229 7.78-3.229v.02c0-.001-1.99 1.999 0 3.999z" fill="#434a54"/><path d="m59.003 30.5c0 1.87-.479 3.76-1.479 5.5-.49.85-1.08 1.62-1.761 2.28 0 0-.02-2.83-2.84-2.841-2.67-.01-2.81-2.55-2.819-2.81.55-.54.89-1.3.89-2.13 0 0 1.99 1.99 3.99 0s4 0 4 0h.019z" fill="#545c66"/><path d="m45.873 28.39c-.54.54-.87 1.29-.87 2.11 0 0-1.99-1.99-4 0-1.92 1.91-3.85.16-4.01.01 0-1.87.48-3.77 1.48-5.5.489-.85 1.079-1.61 1.739-2.27.011.21.12 2.81 2.83 2.819 2.82.01 2.82 2.82 2.82 2.82z" fill="#545c66"/><path d="m47.983 27.5c-.83 0-1.57.34-2.11.89l-.01-.01s0-2.811-2.82-2.82c-2.71-.01-2.819-2.609-2.83-2.819 2.08-2.091 4.891-3.23 7.771-3.24v.01s-1.98 2 0 4c1.99 1.999-.001 3.989-.001 3.989z" fill="#434a54"/><path d="m40.224 38.28c.26-.011 2.81-.171 2.829-2.841.011-2.819 2.82-2.83 2.82-2.83.53.551 1.28.881 2.101.891-.15.16-1.891 2.06.01 3.979 1.99 2.011 0 4.021 0 4.021-1.86 0-3.75-.47-5.48-1.47-.851-.49-1.621-1.08-2.28-1.75z" fill="#545c66"/><path d="m41.003 30.5c2.01-1.99 4 0 4 0 0 .83.33 1.569.87 2.109 0 0-2.81.011-2.82 2.83-.02 2.67-2.569 2.83-2.829 2.841-2.091-2.08-3.221-4.9-3.23-7.771.159.151 2.089 1.901 4.009-.009z" fill="#434a54"/><path d="m50.104 32.63c-.54.54-1.28.87-2.11.87-.01 0-.01 0-.02 0-.82-.01-1.57-.34-2.101-.891-.54-.54-.87-1.279-.87-2.109 0-.82.33-1.57.87-2.11.54-.55 1.28-.89 2.11-.89h.01c.83 0 1.58.34 2.12.88s.88 1.3.88 2.12c0 .83-.34 1.59-.889 2.13z" fill="#656d78"/><path d="m47.993 27.5h-.01s1.99-1.99 0-3.99c-1.98-2 0-4 0-4v-.01c1.88 0 3.779.479 5.52 1.479.851.49 1.61 1.07 2.271 1.74l-.011.01s-2.819.011-2.829 2.83c-.011 2.82-2.82 2.82-2.82 2.82-.541-.539-1.291-.879-2.121-.879z" fill="#545c66"/><path d="m47.983 41.5s1.99-2.01 0-4.021c-1.9-1.92-.16-3.819-.01-3.979h.02c.83 0 1.57-.33 2.11-.87.01.26.149 2.8 2.819 2.81 2.82.011 2.84 2.841 2.84 2.841-2.069 2.089-4.899 3.219-7.779 3.219z" fill="#434a54"/><path d="m54.983 30.5c-2 1.99-3.99 0-3.99 0 0-.82-.34-1.58-.88-2.12 0 0 2.81 0 2.82-2.82.01-2.819 2.829-2.83 2.829-2.83l.011-.01c2.09 2.07 3.229 4.9 3.229 7.78h-.02c.001 0-1.999-1.99-3.999 0z" fill="#434a54"/><path d="m21.99 34.49c-2.206 0-4-1.793-4-3.997s1.794-3.997 4-3.997 4 1.793 4 3.997-1.794 3.997-4 3.997zm0-5.993c-1.103 0-2 .896-2 1.997s.897 1.997 2 1.997 2-.896 2-1.997-.897-1.997-2-1.997z"/><path d="m21.99 28.498c-.256 0-.512-.098-.707-.293-.389-.389-.391-1.019-.005-1.409.298-.309 1.174-1.402.003-2.581-1.973-1.981-1.082-4.323-.001-5.413.389-.393 1.021-.396 1.414-.007.392.389.395 1.022.006 1.414-.293.306-1.176 1.415-.001 2.595 1.975 1.988 1.081 4.319-.002 5.401-.195.195-.451.293-.707.293z"/><path d="m21.988 42.504c-.254 0-.508-.096-.703-.289-.393-.388-.396-1.021-.008-1.414.294-.308 1.181-1.424.003-2.612-1.973-1.986-1.08-4.32.002-5.405.391-.392 1.023-.391 1.414-.001.39.389.392 1.018.007 1.409-.298.31-1.176 1.407-.003 2.588 1.971 1.988 1.079 4.335-.001 5.428-.195.196-.453.296-.711.296z"/><path d="m19.863 29.378c-.551 0-.997-.445-1-.994-.007-.429-.161-1.821-1.823-1.827-2.794-.005-3.819-2.291-3.827-3.826-.003-.552.443-1.002.995-1.005h.005c.55 0 .997.444 1 .995.009.424.169 1.833 1.832 1.836 2.804.009 3.819 2.29 3.818 3.821 0 .553-.448 1-1 1z"/><path d="m29.768 39.283c-.55 0-.996-.443-1-.994-.01-.426-.173-1.842-1.847-1.85-2.798-.01-3.817-2.291-3.819-3.822-.001-.552.446-1 .999-1.001h.001c.549 0 .995.443 1 .991.008.429.164 1.827 1.828 1.833 2.799.014 3.828 2.303 3.838 3.838.003.552-.441 1.002-.994 1.006-.003-.001-.004-.001-.006-.001z"/><path d="m13.066 32.382c-1.133 0-2.157-.553-2.778-1.167-.392-.389-.396-1.021-.007-1.414.39-.392 1.021-.396 1.415-.007.306.293 1.415 1.176 2.592.002 1.99-1.975 4.32-1.081 5.403.001.391.391.391 1.023 0 1.414-.389.39-1.019.391-1.409.005-.31-.298-1.404-1.172-2.583-.003-.853.851-1.774 1.169-2.633 1.169z"/><path d="m27.041 32.383c-1.132 0-2.154-.555-2.771-1.17-.392-.39-.392-1.023-.002-1.415.389-.39 1.019-.392 1.409-.006.309.298 1.406 1.175 2.588.003 1.988-1.97 4.334-1.08 5.428 0 .393.388.396 1.021.008 1.415-.388.392-1.021.396-1.414.008-.307-.294-1.425-1.181-2.612-.003-.856.849-1.777 1.168-2.634 1.168z"/><path d="m14.213 39.281c-.55 0-.997-.444-1-.995-.003-.553.443-1.002.995-1.005.424-.009 1.833-.169 1.835-1.831.01-2.802 2.291-3.819 3.822-3.82.552 0 1 .447 1 1 0 .55-.443.997-.993 1-.43.008-1.823.163-1.829 1.825-.004 2.793-2.29 3.818-3.825 3.826-.002 0-.003 0-.005 0z"/><path d="m24.102 29.393c-.552 0-1-.447-1-1 0-.55.443-.997.992-1 .43-.008 1.826-.163 1.832-1.828.014-2.799 2.303-3.829 3.838-3.837h.006c.55 0 .997.444 1 .994.003.552-.441 1.002-.994 1.006-.426.01-1.842.172-1.85 1.846-.01 2.8-2.292 3.818-3.824 3.819z"/><path d="m21.978 42.494c-2.094 0-4.163-.557-5.985-1.608-5.725-3.309-7.697-10.662-4.396-16.392 2.138-3.702 6.124-6.001 10.402-6.001 2.095 0 4.167.556 5.991 1.608 5.727 3.307 7.697 10.659 4.394 16.388-2.14 3.704-6.127 6.005-10.406 6.005zm.021-22.001c-3.566 0-6.889 1.916-8.67 5-2.751 4.775-1.107 10.904 3.663 13.661 1.519.877 3.242 1.341 4.985 1.341 3.567 0 6.892-1.917 8.674-5.004 2.753-4.775 1.111-10.901-3.661-13.657-1.52-.878-3.246-1.341-4.991-1.341z"/><path d="m47.998 34.49c-2.206 0-4-1.793-4-3.997s1.794-3.997 4-3.997 4 1.793 4 3.997-1.794 3.997-4 3.997zm0-5.993c-1.103 0-2 .896-2 1.997s.897 1.997 2 1.997 2-.896 2-1.997-.897-1.997-2-1.997z"/><path d="m47.998 28.498c-.256 0-.512-.098-.707-.293-.389-.389-.391-1.019-.005-1.409.298-.309 1.174-1.402.003-2.581-1.973-1.981-1.082-4.323-.001-5.413.389-.393 1.021-.396 1.414-.007.392.389.395 1.022.006 1.414-.293.306-1.176 1.415-.001 2.595 1.975 1.988 1.081 4.319-.002 5.401-.195.195-.451.293-.707.293z"/><path d="m47.996 42.504c-.254 0-.508-.096-.703-.289-.393-.388-.396-1.021-.008-1.414.294-.308 1.181-1.424.003-2.612-1.973-1.986-1.08-4.32.002-5.405.391-.392 1.023-.391 1.414-.001.39.389.392 1.018.007 1.409-.298.31-1.176 1.407-.003 2.588 1.971 1.988 1.079 4.335-.001 5.428-.195.196-.453.296-.711.296z"/><path d="m45.871 29.378c-.551 0-.997-.445-1-.994-.007-.429-.161-1.821-1.823-1.827-2.794-.005-3.819-2.291-3.827-3.826-.003-.552.443-1.002.995-1.005h.005c.55 0 .997.444 1 .995.009.424.169 1.833 1.832 1.836 2.804.009 3.819 2.29 3.818 3.821 0 .553-.448 1-1 1z"/><path d="m55.775 39.283c-.55 0-.996-.443-1-.994-.01-.426-.173-1.842-1.847-1.85-2.798-.01-3.817-2.291-3.819-3.822-.001-.552.446-1 .999-1.001h.001c.549 0 .995.443 1 .991.008.429.164 1.827 1.828 1.833 2.799.014 3.828 2.303 3.838 3.838.003.552-.441 1.002-.994 1.006-.002-.001-.004-.001-.006-.001z"/><path d="m39.074 32.382c-1.133 0-2.157-.553-2.778-1.167-.392-.389-.396-1.021-.007-1.414.39-.392 1.021-.396 1.415-.007.306.293 1.415 1.176 2.592.002 1.99-1.975 4.32-1.081 5.403.001.391.391.391 1.023 0 1.414-.389.39-1.019.391-1.409.005-.309-.298-1.403-1.172-2.583-.003-.853.851-1.774 1.169-2.633 1.169z"/><path d="m53.049 32.383c-1.132 0-2.154-.555-2.771-1.17-.392-.39-.392-1.023-.002-1.415.389-.39 1.019-.392 1.409-.006.309.298 1.406 1.175 2.588.003 1.987-1.97 4.333-1.08 5.428 0 .393.388.396 1.021.008 1.415-.388.392-1.021.396-1.414.008-.308-.294-1.425-1.181-2.612-.003-.856.849-1.777 1.168-2.634 1.168z"/><path d="m40.221 39.281c-.55 0-.997-.444-1-.995-.003-.553.443-1.002.995-1.005.424-.009 1.833-.169 1.835-1.831.01-2.802 2.291-3.819 3.822-3.82.552 0 1 .447 1 1 0 .55-.443.997-.993 1-.43.008-1.823.163-1.829 1.825-.004 2.793-2.29 3.818-3.825 3.826-.002 0-.003 0-.005 0z"/><path d="m50.109 29.393c-.552 0-1-.447-1-1 0-.55.443-.997.992-1 .43-.008 1.826-.163 1.832-1.828.014-2.799 2.303-3.829 3.838-3.837h.006c.55 0 .997.444 1 .994.003.552-.441 1.002-.994 1.006-.426.01-1.842.172-1.85 1.846-.009 2.8-2.291 3.818-3.824 3.819z"/><path d="m47.985 42.494c-2.094 0-4.163-.557-5.985-1.608-5.725-3.309-7.697-10.662-4.396-16.392 2.138-3.702 6.124-6.001 10.402-6.001 2.095 0 4.167.556 5.991 1.608 5.727 3.307 7.697 10.659 4.394 16.388-2.139 3.704-6.126 6.005-10.406 6.005zm.022-22.001c-3.566 0-6.889 1.916-8.67 5-2.751 4.775-1.108 10.903 3.663 13.66 1.519.877 3.242 1.341 4.985 1.341 3.567 0 6.892-1.917 8.674-5.004 2.753-4.775 1.111-10.901-3.661-13.657-1.52-.877-3.246-1.34-4.991-1.34z"/><path d="m7.002 46.502h-4c-.553 0-1-.447-1-1v-30.003c0-.552.447-1 1-1h4c.553 0 1 .448 1 1v30.003c0 .553-.447 1-1 1zm-3-2h2v-28.003h-2z"/><path d="m63 16.499h-56.998c-.553 0-1-.448-1-1s.447-1 1-1h56.998c.553 0 1 .448 1 1s-.447 1-1 1z"/><path d="m63 46.498h-56.998c-.553 0-1-.447-1-1s.447-1 1-1h56.998c.553 0 1 .447 1 1s-.447 1-1 1z"/><path d="m3.002 52.502c-.553 0-1-.447-1-1v-6c0-.553.447-1 1-1s1 .447 1 1v6c0 .553-.447 1-1 1z"/><path d="m63 46.498c-.553 0-1-.447-1-1v-30c0-.552.447-1 1-1s1 .448 1 1v30c0 .553-.447 1-1 1z"/><path d="m7.002 49.498c-.553 0-1-.447-1-1v-2.996c0-.553.447-1 1-1s1 .447 1 1v2.996c0 .553-.447 1-1 1z"/><path d="m32 49.498h-24.998c-.553 0-1-.447-1-1s.447-1 1-1h24.998c.553 0 1 .447 1 1s-.447 1-1 1z"/><path d="m32 49.498c-.553 0-1-.447-1-1v-3c0-.553.447-1 1-1s1 .447 1 1v3c0 .553-.447 1-1 1z"/><path d="m10 49.498c-.553 0-1-.447-1-1v-3c0-.553.447-1 1-1s1 .447 1 1v3c0 .553-.447 1-1 1z"/><path d="m7.002 16.499c-.552 0-.999-.447-1-.999l-.004-3c-.001-.552.446-1.001.999-1.001h.001c.552 0 .999.447 1 .999l.004 3c.001.551-.446 1-1 1.001z"/><path d="m9.998 16.499c-.256 0-.512-.098-.707-.293-.391-.391-.391-1.023 0-1.414l3-3c.391-.391 1.023-.391 1.414 0s.391 1.023 0 1.414l-3 3c-.195.195-.451.293-.707.293z"/><path d="m15.998 16.499c-.256 0-.512-.098-.707-.292-.391-.391-.391-1.024 0-1.415l2.998-3c.391-.391 1.023-.39 1.414 0 .391.391.391 1.024 0 1.415l-2.998 3c-.195.194-.451.292-.707.292z"/><path d="m21.996 16.499c-.256 0-.512-.098-.707-.293-.391-.391-.391-1.023 0-1.414l3-3c.391-.391 1.023-.391 1.414 0s.391 1.023 0 1.414l-3 3c-.195.195-.451.293-.707.293z"/><path d="m27.996 16.499c-.256 0-.512-.098-.707-.292-.391-.391-.391-1.024 0-1.415l2.998-3c.391-.391 1.023-.39 1.414 0 .391.391.391 1.024 0 1.415l-2.998 3c-.195.194-.451.292-.707.292z"/><path d="m33.994 16.499c-.256 0-.512-.098-.707-.293-.391-.391-.391-1.023 0-1.414l3-3c.391-.391 1.023-.391 1.414 0s.391 1.023 0 1.414l-3 3c-.195.195-.451.293-.707.293z"/><path d="m39.994 16.499c-.256 0-.512-.098-.707-.292-.391-.391-.391-1.024 0-1.415l2.998-3c.391-.391 1.023-.39 1.414 0 .391.391.391 1.024 0 1.415l-2.998 3c-.195.194-.451.292-.707.292z"/><path d="m45.992 16.499c-.256 0-.512-.098-.707-.293-.391-.391-.391-1.023 0-1.414l3-3c.391-.391 1.023-.391 1.414 0s.391 1.023 0 1.414l-3 3c-.195.195-.451.293-.707.293z"/><path d="m51.992 16.499c-.256 0-.512-.098-.707-.292-.391-.391-.391-1.024 0-1.415l2.998-3c.391-.391 1.023-.39 1.414 0 .391.391.391 1.024 0 1.415l-2.998 3c-.195.194-.451.292-.707.292z"/><path d="m58 16.499c-.256 0-.512-.098-.707-.293-.391-.391-.391-1.023 0-1.414l3-3c.391-.391 1.023-.391 1.414 0s.391 1.023 0 1.414l-3 3c-.195.195-.451.293-.707.293z"/><path d="m62.996 16.499c-.552 0-.999-.447-1-.999l-.004-3c-.001-.552.446-1.001.999-1.001h.001c.552 0 .999.447 1 .999l.004 3c.001.551-.446 1-1 1.001z"/><path d="m62.992 13.499h-55.994c-.553 0-1-.448-1-1s.447-1 1-1h55.994c.553 0 1 .448 1 1s-.447 1-1 1z"/><path d="m3.002 21.561h-2.002c-.553 0-1-.448-1-1s.447-1 1-1h2.002c.553 0 1 .448 1 1s-.447 1-1 1z"/></svg>