<svg id="Capa_1" enable-background="new 0 0 512 512" height="512" viewBox="0 0 512 512" width="512" xmlns="http://www.w3.org/2000/svg"><g><path d="m432.008 504.5h-352.016c-8.274 0-14.981-6.707-14.981-14.981v-467.038c0-8.274 6.707-14.981 14.981-14.981h352.017c8.274 0 14.981 6.707 14.981 14.981v467.038c-.001 8.274-6.708 14.981-14.982 14.981z" fill="#30579d"/><path d="m432.008 7.5h-21.147c8.274 0 14.981 6.707 14.981 14.981v467.038c0 8.274-6.707 14.981-14.981 14.981h21.147c8.274 0 14.981-6.707 14.981-14.981v-467.038c0-8.274-6.707-14.981-14.981-14.981z" fill="#26457d"/><circle cx="256" cy="169.151" fill="#f9f6f9" r="130.345"/><path d="m256 38.806c-4.73 0-9.4.259-14 .75 65.403 6.985 116.345 62.338 116.345 129.596s-50.942 122.61-116.345 129.595c4.6.491 9.27.75 14 .75 71.988 0 130.345-58.358 130.345-130.345s-58.357-130.346-130.345-130.346z" fill="#dddaec"/><circle cx="256" cy="169.151" fill="#beb9dd" r="43.562"/><path d="m256 125.589c-3.76 0-7.408.476-10.888 1.372 18.79 4.835 32.674 21.891 32.674 42.191s-13.884 37.356-32.674 42.191c3.48.896 7.128 1.372 10.888 1.372 24.059 0 43.562-19.504 43.562-43.562s-19.503-43.564-43.562-43.564z" fill="#a7a2d3"/><path d="m172.402 403.545v-55.586h-44.802c-5.956 0-10.784 4.828-10.784 10.784v33.754h19.601v22.097h-19.601v14.862c0 16.389 13.286 29.676 29.676 29.676h14.862v-19.602h22.097v19.601h33.754c5.956 0 10.784-4.828 10.784-10.784v-44.802z" fill="#f9f6f9"/><path d="m332.136 385.379-7.838 22.562c-1.294 3.726-4.806 6.224-8.751 6.224h-24.985v44.965h79.261c13.193 0 23.888-10.695 23.888-23.888v-49.863z" fill="#f9f6f9"/><path d="m373.485 385.379v49.863c0 13.193-10.695 23.888-23.888 23.888h20.225c13.193 0 23.888-10.695 23.888-23.888v-49.863z" fill="#dddaec"/><path d="m172.402 368.794 80.291-131.823c2.281-3.745 8.045-1.316 6.956 2.933l-41.937 163.641h-45.311v-34.751z" fill="#ffe07d"/><path d="m186.414 362.687v-16.897l-14.012 23.004v34.751h45.311l4.655-18.165h-13.262c-12.532 0-22.692-10.16-22.692-22.693z" fill="#ffd064"/><g><path d="m256 31.306c-76.008 0-137.845 61.837-137.845 137.846 0 29.846 9.383 58.249 27.135 82.139 15.828 21.302 36.981 37.294 61.495 46.637l-28.042 46.039c-1.328-2.105-3.668-3.507-6.341-3.507h-44.802c-10.082 0-18.284 8.202-18.284 18.283v33.754c0 4.143 3.357 7.5 7.5 7.5h12.102v7.097h-12.102c-4.143 0-7.5 3.357-7.5 7.5v14.862c0 20.499 16.677 37.176 37.176 37.176h14.862c4.143 0 7.5-3.357 7.5-7.5v-12.102h7.097v12.102c0 4.143 3.357 7.5 7.5 7.5h33.754c10.082 0 18.284-8.202 18.284-18.284v-44.802c0-4.143-3.357-7.5-7.5-7.5h-.61l22.851-89.169c1.925.079 3.852.121 5.77.121 43.403 0 83.371-20.225 109.077-53.501l8.738 6.332v30.14c0 4.143 3.357 7.5 7.5 7.5s7.5-3.357 7.5-7.5v-33.969c0-2.404-1.152-4.663-3.1-6.073l-12.125-8.785c3.506-5.733 6.626-11.77 9.311-18.085 1.621-3.812-.154-8.216-3.966-9.837-3.813-1.625-8.216.156-9.837 3.966-2.239 5.265-4.828 10.303-7.709 15.116l-14.853-10.762c-3.352-2.431-8.044-1.682-10.474 1.673-2.431 3.354-1.682 8.043 1.673 10.474l15.188 11.005c-22.92 29.435-58.405 47.307-96.924 47.307-.649 0-1.3-.011-1.951-.021l12.867-50.211c1.402-5.475-1.359-11.042-6.566-13.237-5.209-2.195-11.122-.283-14.061 4.542l-31.558 51.812c-22.688-8.113-42.953-23.094-57.401-42.538-15.815-21.284-24.175-46.594-24.175-73.192 0-67.737 55.107-122.846 122.845-122.846s122.846 55.108 122.846 122.846c0 6.812-.571 13.684-1.699 20.423-.684 4.085 2.074 7.951 6.16 8.635 4.082.675 7.951-2.074 8.635-6.16 1.264-7.554 1.904-15.258 1.904-22.897 0-76.012-61.837-137.849-137.845-137.849zm-35.511 417.041c0 1.811-1.474 3.284-3.284 3.284h-26.254v-12.102c0-4.143-3.357-7.5-7.5-7.5h-22.097c-4.143 0-7.5 3.357-7.5 7.5v12.102h-7.362c-12.228 0-22.176-9.948-22.176-22.176v-7.362h12.102c4.143 0 7.5-3.357 7.5-7.5v-22.097c0-4.143-3.357-7.5-7.5-7.5h-12.102v-26.254c0-1.811 1.474-3.283 3.284-3.283h37.302v48.086c0 4.143 3.357 7.5 7.5 7.5h45.285c.01 0 .021.002.031.002.008 0 .016-.002.023-.002h2.747v37.302zm-8.596-52.302h-31.991v-25.147l66.354-108.938z"/><path d="m204.937 169.151c0 28.156 22.906 51.062 51.062 51.062s51.062-22.906 51.062-51.062-22.905-51.062-51.061-51.062-51.063 22.906-51.063 51.062zm87.125 0c0 19.885-16.178 36.062-36.062 36.062s-36.062-16.178-36.062-36.062 16.178-36.062 36.062-36.062 36.062 16.178 36.062 36.062z"/><path d="m101.139 468.609c-4.143 0-7.5 3.357-7.5 7.5v.707c0 4.143 3.357 7.5 7.5 7.5s7.5-3.357 7.5-7.5v-.707c0-4.142-3.357-7.5-7.5-7.5z"/><path d="m403.361 476.816c0 4.143 3.357 7.5 7.5 7.5s7.5-3.357 7.5-7.5v-.707c0-4.143-3.357-7.5-7.5-7.5s-7.5 3.357-7.5 7.5z"/><path d="m108.639 35.184c0-4.143-3.357-7.5-7.5-7.5s-7.5 3.357-7.5 7.5v.707c0 4.143 3.357 7.5 7.5 7.5s7.5-3.357 7.5-7.5z"/><path d="m410.861 43.391c4.143 0 7.5-3.357 7.5-7.5v-.707c0-4.143-3.357-7.5-7.5-7.5s-7.5 3.357-7.5 7.5v.707c0 4.142 3.357 7.5 7.5 7.5z"/><path d="m248.5 166.78v4.742c0 4.143 3.357 7.5 7.5 7.5s7.5-3.357 7.5-7.5v-4.742c0-4.143-3.357-7.5-7.5-7.5s-7.5 3.358-7.5 7.5z"/><path d="m369.823 451.631h-20.226c-4.143 0-7.5 3.357-7.5 7.5s3.357 7.5 7.5 7.5h20.226c17.308 0 31.388-14.08 31.388-31.388v-49.863c0-4.143-3.357-7.5-7.5-7.5h-61.574c-3.193 0-6.037 2.022-7.085 5.039l-7.838 22.562c-.246.709-.915 1.185-1.666 1.185h-24.985c-4.143 0-7.5 3.357-7.5 7.5v44.965c0 4.143 3.357 7.5 7.5 7.5h29.049c4.143 0 7.5-3.357 7.5-7.5s-3.357-7.5-7.5-7.5h-21.549v-29.965h17.485c7.132 0 13.496-4.526 15.836-11.263l6.087-17.523h48.74v42.363c-.001 9.036-7.352 16.388-16.388 16.388z"/><path d="m432.008 0h-276.367c-4.143 0-7.5 3.357-7.5 7.5s3.357 7.5 7.5 7.5h276.367c4.125 0 7.481 3.356 7.481 7.481v467.037c0 4.125-3.356 7.481-7.481 7.481h-352.016c-4.125 0-7.481-3.356-7.481-7.481v-467.037c0-4.125 3.356-7.481 7.481-7.481h45.663c4.143 0 7.5-3.357 7.5-7.5s-3.357-7.5-7.5-7.5h-45.663c-12.397 0-22.482 10.085-22.482 22.481v467.037c0 12.397 10.085 22.482 22.482 22.482h352.017c12.396 0 22.481-10.085 22.481-22.481v-467.038c0-12.396-10.085-22.481-22.482-22.481z"/></g></g></svg>