<svg id="Capa_1" enable-background="new 0 0 512 512" height="512" viewBox="0 0 512 512" width="512" xmlns="http://www.w3.org/2000/svg"><g><g><path d="m353.29 418.629h-226.996c-21.343 0-38.645-17.302-38.645-38.645v-247.968c0-21.343 17.302-38.645 38.645-38.645h226.996c21.343 0 38.645 17.302 38.645 38.645v247.968c0 21.343-17.302 38.645-38.645 38.645z" fill="#6c7fd8"/><path d="m353.29 93.371h-21.998c21.343 0 37.645 17.302 37.645 38.645v247.968c0 21.343-16.302 38.645-37.645 38.645h21.998c21.343 0 38.645-17.302 38.645-38.645v-247.968c0-21.343-17.302-38.645-38.645-38.645z" fill="#4f66d0"/><path d="m361.932 137.88v236.24c0 8.01-6.49 14.51-14.51 14.51h-215.26c-8.02 0-14.51-6.5-14.51-14.51v-236.24c0-8.01 6.49-14.51 14.51-14.51h215.26c8.02 0 14.51 6.5 14.51 14.51z" fill="#c8effe"/><path d="m347.422 123.37h-23.998c8.02 0 14.51 6.5 14.51 14.51v236.24c0 8.01-6.49 14.51-14.51 14.51h23.998c8.02 0 14.51-6.5 14.51-14.51v-236.24c0-8.01-6.49-14.51-14.51-14.51z" fill="#a7edf9"/><g><path d="m307.953 7.5h-136.322c-14.23 0-26.56 9.865-29.681 23.749l-13.967 62.122h223.619l-13.967-62.122c-3.123-13.884-15.452-23.749-29.682-23.749z" fill="#8d9ca8"/><path d="m337.634 31.249c-3.122-13.884-15.451-23.749-29.681-23.749h-23.998c14.231 0 26.56 9.865 29.681 23.749l13.967 62.122h23.998z" fill="#7a8c98"/><path d="m307.953 504.5h-136.322c-14.23 0-26.56-9.865-29.681-23.749l-13.967-62.122h223.619l-13.967 62.122c-3.123 13.884-15.452 23.749-29.682 23.749z" fill="#8d9ca8"/><path d="m327.603 418.629-13.967 62.122c-3.122 13.884-15.451 23.749-29.681 23.749h23.998c14.23 0 26.56-9.865 29.681-23.749l13.967-62.122z" fill="#7a8c98"/></g><path d="m330.824 164.611c-2.431-5.565-8.694-8.37-14.464-6.476l-8.691 2.852c-.803.263-1.669.263-2.471 0l-8.691-2.852c-5.77-1.893-12.034.911-14.464 6.476-2.002 4.584-.986 9.926 2.56 13.454l19.036 18.946c1.546 1.539 4.046 1.539 5.592 0l19.036-18.946c3.543-3.528 4.559-8.87 2.557-13.454z" fill="#ee6161"/><path d="m361.932 228.32v145.8c0 8.01-6.49 14.51-14.51 14.51h-215.26c-8.02 0-14.51-6.5-14.51-14.51v-145.8z" fill="#eaf6ff"/><path d="m337.934 228.32v145.8c0 8.01-6.49 14.51-14.51 14.51h23.998c8.02 0 14.51-6.5 14.51-14.51v-145.8z" fill="#c8effe"/><path d="m312.335 319.674h-42.506c-7.631 0-13.817-6.186-13.817-13.817 0-7.631 6.186-13.817 13.817-13.817h42.506c7.631 0 13.817 6.186 13.817 13.817 0 7.631-6.186 13.817-13.817 13.817z" fill="#c9f772"/><path d="m312.335 292.04h-26.903c7.631 0 13.817 6.186 13.817 13.817s-6.186 13.817-13.817 13.817h26.903c7.631 0 13.817-6.186 13.817-13.817s-6.186-13.817-13.817-13.817z" fill="#bbec6c"/><path d="m391.935 177.856h15.92c9.111 0 16.496 7.386 16.496 16.496v44.275c0 9.111-7.386 16.496-16.496 16.496h-15.92z" fill="#596c76"/></g><g><path d="m347.422 115.87h-215.26c-12.137 0-22.01 9.874-22.01 22.01v236.24c0 12.136 9.874 22.01 22.01 22.01h215.26c12.136 0 22.01-9.874 22.01-22.01v-50.22c0-4.142-3.357-7.5-7.5-7.5s-7.5 3.358-7.5 7.5v50.22c0 3.865-3.145 7.01-7.01 7.01h-215.26c-3.624 0-6.614-2.764-6.974-6.294-.024-.235-.036-139.016-.036-139.016h229.28v52.076c0 4.142 3.357 7.5 7.5 7.5s7.5-3.358 7.5-7.5v-150.016c-.001-12.136-9.875-22.01-22.01-22.01zm-222.27 104.95v-36.923h21.752c2.544 0 4.916-1.29 6.297-3.427l7.931-12.26 20.513 33.843c2.913 5.162 11.146 4.576 13.305-.929l12.016-27.99 5.934 8.886c1.391 2.084 3.731 3.335 6.237 3.335h62.156l17.052 16.97c4.459 4.439 11.714 4.438 16.175.001l19.035-18.945c5.78-5.753 7.405-14.299 4.142-21.772-4.001-9.16-14.179-13.716-23.675-10.601l-7.589 2.49-7.588-2.49c-9.497-3.117-19.676 1.44-23.677 10.6-1.237 2.832-1.768 5.817-1.641 8.747h-50.38l-11.382-17.047c-3.049-4.9-11.023-4.166-13.129 1.206l-11.719 27.298-19.165-31.619c-2.638-4.676-9.949-4.764-12.711-.186l-12.218 18.888h-17.671v-31.015c0-3.865 3.145-7.01 7.01-7.01h215.26c3.865 0 7.01 3.145 7.01 7.01v82.94zm163.763-53.207c.885-2.053 3.202-3.041 5.254-2.352l8.688 2.851c2.343.769 4.815.768 7.15.001l8.692-2.852c2.105-.692 4.364.32 5.252 2.352.771 1.763.387 3.779-.978 5.137l-16.54 16.462-15.596-15.521c-1.595-1.666-3.101-3.652-1.922-6.078z"/><path d="m256.174 35.294h-32.764c-4.142 0-7.5 3.358-7.5 7.5s3.358 7.5 7.5 7.5h32.763c4.143 0 7.5-3.358 7.5-7.5s-3.357-7.5-7.499-7.5z"/><path d="m188.333 346.761c-9.825.232-18.215-6.956-19.566-16.638-.573-4.103-4.361-6.96-8.465-6.392-4.103.573-6.964 4.362-6.392 8.465 2.369 16.972 16.928 29.569 34.023 29.568.232 0 .467-.002.701-.007 17.912-.361 32.669-14.648 33.597-32.526.494-9.52-2.842-18.562-9.393-25.462-6.459-6.803-15.539-10.705-24.91-10.705-3.44 0-6.316.208-8.869.605l3.487-21.047h26.624c4.142 0 7.5-3.358 7.5-7.5s-3.358-7.5-7.5-7.5h-32.984c-3.669 0-6.799 2.654-7.399 6.274l-6.534 39.438c-1.189 6.325 6.284 11.024 11.616 7.526 3.753-1.689 6.759-2.796 14.058-2.796 5.355 0 10.338 2.143 14.032 6.033 3.69 3.887 5.569 8.986 5.291 14.356-.52 10.063-8.83 18.104-18.917 18.308z"/><path d="m294.433 271.059c4.143 0 7.5-3.358 7.5-7.5s-3.357-7.5-7.5-7.5h-38.421c-4.143 0-7.5 3.358-7.5 7.5s3.357 7.5 7.5 7.5z"/><path d="m333.652 305.857c0-11.754-9.563-21.317-21.317-21.317h-42.506c-11.754 0-21.316 9.563-21.316 21.317s9.563 21.317 21.316 21.317h42.506c11.755 0 21.317-9.563 21.317-21.317zm-70.14 0c0-3.483 2.834-6.317 6.316-6.317h42.506c3.483 0 6.317 2.834 6.317 6.317s-2.834 6.317-6.317 6.317h-42.506c-3.482 0-6.316-2.834-6.316-6.317z"/><path d="m407.855 170.356h-8.421v-38.34c0-23.973-18.378-43.728-41.784-45.933l-12.698-56.479c-3.92-17.431-19.134-29.604-36.999-29.604h-136.322c-17.865 0-33.08 12.173-36.999 29.604l-12.699 56.479c-23.406 2.205-41.785 21.96-41.785 45.933v247.968c0 25.444 20.701 46.145 46.145 46.145h215.935l-11.911 52.977c-2.369 10.536-11.565 17.894-22.364 17.894h-136.322c-10.799 0-19.995-7.358-22.364-17.894l-5.86-26.064c-.909-4.042-4.921-6.581-8.963-5.672-4.041.909-6.581 4.921-5.672 8.962l5.86 26.064c3.919 17.431 19.133 29.604 36.999 29.604h136.322c17.865 0 33.079-12.173 36.999-29.604l12.698-56.479c23.406-2.205 41.784-21.96 41.784-45.933v-117.361h8.421c13.231 0 23.996-10.765 23.996-23.996v-44.275c0-13.231-10.764-23.996-23.996-23.996zm-258.588-137.462c2.368-10.536 11.565-17.894 22.364-17.894h136.322c10.799 0 19.995 7.358 22.364 17.894l11.911 52.977h-204.872zm235.167 347.09c0 17.173-13.972 31.145-31.145 31.145h-226.995c-17.173 0-31.145-13.972-31.145-31.145v-247.968c0-17.173 13.972-31.145 31.145-31.145h226.996c17.173 0 31.145 13.972 31.145 31.145v247.968zm32.417-141.357c0 4.96-4.035 8.996-8.996 8.996h-8.421v-62.267h8.421c4.961 0 8.996 4.036 8.996 8.996z"/><circle cx="256.012" cy="354.265" r="8.167"/><circle cx="291.082" cy="354.265" r="8.167"/></g></g></svg>