<svg id="COLOR_ICON" height="512" viewBox="0 0 74 74" width="512" xmlns="http://www.w3.org/2000/svg" data-name="COLOR ICON"><path d="m49.911 40.48a7.28 7.28 0 0 0 2.3-1.2 7.49 7.49 0 1 0 -9.179-11.839 7 7 0 0 0 -1.253 1.238 6.17 6.17 0 0 0 -.056-1.689 6.692 6.692 0 0 0 -13.233.141 8.337 8.337 0 0 0 -12.5 5.757 7.022 7.022 0 0 0 -.817-.3 5.939 5.939 0 0 0 -7.151 7.892z" fill="#89c5cd"/><path d="m49.911 40.98h-41.889a.5.5 0 0 1 -.465-.319 6.446 6.446 0 0 1 7.753-8.546c.1.031.209.065.311.1a8.836 8.836 0 0 1 12.508-5.845 7.194 7.194 0 0 1 14.089.545c.029.167.051.334.066.5q.216-.194.446-.37a7.99 7.99 0 1 1 9.789 12.632 7.768 7.768 0 0 1 -2.457 1.278.517.517 0 0 1 -.151.025zm-41.535-1h41.457a6.757 6.757 0 0 0 2.072-1.09 6.991 6.991 0 1 0 -8.563-11.052 6.431 6.431 0 0 0 -1.166 1.153.5.5 0 0 1 -.892-.359 5.743 5.743 0 0 0 -.053-1.554 6.2 6.2 0 0 0 -7.112-5.123 6.229 6.229 0 0 0 -5.132 5.245.5.5 0 0 1 -.751.36 7.838 7.838 0 0 0 -11.752 5.413.5.5 0 0 1 -.7.372 6.282 6.282 0 0 0 -.756-.273 5.436 5.436 0 0 0 -6.655 6.9z" fill="#323c6b"/><rect fill="#fe7058" height="5.859" rx="2.929" width="68" x="3" y="38.629"/><path d="m16.229 66.239h41.542a4.6 4.6 0 0 0 4.484-3.578l4.135-18.174h-58.78l4.135 18.174a4.6 4.6 0 0 0 4.484 3.578z" fill="#fe7058"/><path d="m62.986 4.761h-1.5a4.142 4.142 0 0 0 -3.191 1.5l-3.4 4.077a11.19 11.19 0 0 1 2.308 1.916l3.397-4.077a1.155 1.155 0 0 1 .887-.416h1.5a.506.506 0 0 1 .506.5v30.368h3v-30.363a3.509 3.509 0 0 0 -3.507-3.505z" fill="#e1e6e9"/><path d="m66.492 39.128h-3a.5.5 0 0 1 -.5-.5v-30.361h-1.506a.654.654 0 0 0 -.5.236l-3.391 4.073a.5.5 0 0 1 -.361.179.481.481 0 0 1 -.376-.145 10.78 10.78 0 0 0 -2.2-1.833.5.5 0 0 1 -.248-.346.5.5 0 0 1 .108-.411l3.4-4.077a4.643 4.643 0 0 1 3.575-1.676h1.5a4.01 4.01 0 0 1 4.006 4.005v30.356a.5.5 0 0 1 -.507.5zm-2.5-1h2v-29.861a3.009 3.009 0 0 0 -3.006-3h-1.5a3.646 3.646 0 0 0 -2.807 1.316l-3.029 3.631a11.8 11.8 0 0 1 1.523 1.3l3.043-3.654a1.647 1.647 0 0 1 1.27-.6h1.5a1.006 1.006 0 0 1 1.006 1z" fill="#323c6b"/><path d="m71 41.562a2.936 2.936 0 0 1 -2.93 2.93h-3.33a2.93 2.93 0 1 0 0-5.86h3.33a2.928 2.928 0 0 1 2.93 2.93z" fill="#ea6453"/><path d="m66.387 44.492-4.13 18.17a4.61 4.61 0 0 1 -4.49 3.58h-3.33a4.61 4.61 0 0 0 4.49-3.58l4.13-18.17z" fill="#ea6453"/><path d="m18.655 69.383a.5.5 0 0 1 -.5-.5v-2.69a.5.5 0 0 1 1 0v2.69a.5.5 0 0 1 -.5.5z" fill="#323c6b"/><path d="m55.345 69.383a.5.5 0 0 1 -.5-.5v-2.69a.5.5 0 0 1 1 0v2.69a.5.5 0 0 1 -.5.5z" fill="#323c6b"/><path d="m56.708 10.783a6.761 6.761 0 0 0 -9.469 1.324l-.8.949 10.794 8.144.8-.948a6.762 6.762 0 0 0 -1.325-9.469z" fill="#e1e6e9"/><g fill="#323c6b"><path d="m57.233 21.7a.5.5 0 0 1 -.3-.1l-10.793-8.145a.5.5 0 0 1 -.2-.343.5.5 0 0 1 .115-.378l.8-.949a7.261 7.261 0 0 1 11.576 8.769l-.816.97a.5.5 0 0 1 -.382.176zm-10.071-8.725 9.994 7.542.493-.586a6.263 6.263 0 0 0 -1.242-8.748 6.259 6.259 0 0 0 -8.768 1.225z"/><path d="m58.111 22.364a.487.487 0 0 1 -.3-.1l-12.549-9.472a.5.5 0 1 1 .6-.8l12.549 9.471a.5.5 0 0 1 -.3.9z"/><path d="m48.059 22.925a.5.5 0 0 1 -.3-.1.5.5 0 0 1 -.1-.7l.848-1.125a.5.5 0 0 1 .8.6l-.848 1.123a.5.5 0 0 1 -.4.202z"/><path d="m45.139 19.047a.5.5 0 0 1 -.4-.8l.848-1.123a.5.5 0 1 1 .8.6l-.848 1.122a.5.5 0 0 1 -.4.201z"/><path d="m52.919 24.818a.5.5 0 0 1 -.4-.8l.846-1.123a.5.5 0 0 1 .8.6l-.847 1.122a.5.5 0 0 1 -.399.201z"/><path d="m68.07 44.987h-62.14a3.43 3.43 0 1 1 0-6.859h62.14a3.43 3.43 0 1 1 0 6.859zm-62.14-5.859a2.43 2.43 0 1 0 0 4.859h62.14a2.43 2.43 0 1 0 0-4.859z"/><path d="m57.771 66.739h-41.542a5.071 5.071 0 0 1 -4.971-3.968l-4.135-18.171a.5.5 0 0 1 .487-.611h58.78a.5.5 0 0 1 .487.611l-4.135 18.171a5.071 5.071 0 0 1 -4.971 3.968zm-49.534-21.752 3.995 17.563a4.079 4.079 0 0 0 4 3.189h41.539a4.079 4.079 0 0 0 4-3.189l4-17.563z"/><path d="m30.194 20.293a.5.5 0 0 1 -.236-.94 10.65 10.65 0 0 1 1.537-.677.5.5 0 1 1 .33.944 9.794 9.794 0 0 0 -1.394.614.507.507 0 0 1 -.237.059z"/><path d="m43.309 23.021a.5.5 0 0 1 -.394-.191 9.832 9.832 0 0 0 -7.8-3.783.5.5 0 0 1 0-1 10.821 10.821 0 0 1 8.585 4.166.5.5 0 0 1 -.393.808z"/><path d="m47.125 69.738h-.864a.5.5 0 1 1 0-1h.864a.5.5 0 0 1 0 1z"/><path d="m44.063 69.738h-7.719a.5.5 0 1 1 0-1h7.719a.5.5 0 0 1 0 1z"/></g><path d="m14.417 57.032a.65.65 0 0 1 -.63-.5l-.192-.771a.651.651 0 1 1 1.27-.29l.192.771a.652.652 0 0 1 -.49.78.757.757 0 0 1 -.15.01z" fill="#fff"/><path d="m24.757 62.242a.649.649 0 0 1 -.65.65h-7.88a1.251 1.251 0 0 1 -1.22-.97l-.61-2.71a.642.642 0 0 1 .49-.77.652.652 0 0 1 .78.49l.61 2.7 7.83-.04a.649.649 0 0 1 .65.65z" fill="#fff"/></svg>