<svg id="Layer_1" enable-background="new 0 0 514.693 514.693" height="512" viewBox="0 0 514.693 514.693" width="512" xmlns="http://www.w3.org/2000/svg"><g><path d="m499.693 44.973h-52.96l-189.387 30-189.387-30h-52.959c-8.284 0-15 6.716-15 15v60c0 8.284 6.716 15 15 15h484.693c8.284 0 15-6.716 15-15v-60c0-8.285-6.715-15-15-15z" fill="#4f4540"/><path d="m499.693 44.973h-52.96l-189.387 30v60h242.347c8.284 0 15-6.716 15-15v-60c0-8.285-6.715-15-15-15z" fill="#403b40"/><path d="m446.733 44.922h-378.773v197.173l20 57.171-20 51.899v103.606c0 8.284 6.716 15 15 15h348.773c8.284 0 15-6.716 15-15v-103.606l-20-57.382 20-51.688z" fill="#ace233"/><path d="m257.347 469.771h174.387c8.284 0 15-6.716 15-15v-103.606l-20-57.382 20-51.688v-197.173h-189.387z" fill="#00cb75"/><path d="m67.96 242.094h378.773v109.071h-378.773z" fill="#e7f9fb"/><path d="m257.347 242.094h189.387v109.071h-189.387z" fill="#bceaf9"/></g></svg>