<svg id="Layer_1" enable-background="new 0 0 512 512" height="512" viewBox="0 0 512 512" width="512" xmlns="http://www.w3.org/2000/svg"><g><path d="m452.825 115.169c4.427.456 7.614 4.449 7.095 8.872-5.635 48.022-42.247 292.358-203.915 292.358-161.677 0-198.291-244.336-203.926-292.358-.519-4.423 2.668-8.416 7.095-8.872 12.254-1.263 39.217-4.47 84.694-11.944 54.499-8.966 66.521-74.347 69.026-96.161.464-4.03 3.871-7.064 7.923-7.064h70.365c4.053 0 7.46 3.034 7.922 7.063 2.506 21.815 14.528 87.196 69.026 96.161 45.478 7.474 72.441 10.681 84.695 11.945z" fill="#fa956a"/><path d="m452.825 115.169c-12.254-1.264-39.218-4.47-84.694-11.944-54.499-8.966-66.521-74.347-69.026-96.161-.463-4.03-3.87-7.064-7.922-7.064h-30.905c4.053 0 7.46 3.034 7.922 7.063 2.506 21.815 14.528 87.196 69.026 96.161 45.476 7.474 72.44 10.681 84.694 11.944 4.427.456 7.614 4.449 7.095 8.872-5.45 46.452-39.89 276.589-188.463 291.584 5.021.507 10.168.774 15.453.774 161.668 0 198.281-244.336 203.915-292.358.519-4.422-2.668-8.415-7.095-8.871z" fill="#f78148"/><path d="m389.924 512h-267.848c-2.276 0-4.121-1.845-4.121-4.121v-8.241c0-11.379 9.225-20.604 20.604-20.604h234.881c11.379 0 20.604 9.225 20.604 20.604v8.241c0 2.276-1.845 4.121-4.12 4.121z" fill="#ffcd55"/><path d="m373.441 479.034h-30.905c11.379 0 20.604 9.225 20.604 20.604v8.241c0 2.276-1.845 4.121-4.121 4.121h30.905c2.276 0 4.121-1.845 4.121-4.121v-8.241c-.001-11.379-9.225-20.604-20.604-20.604z" fill="#ffbe46"/><path d="m336.704 391.994s-49.882 35.335-49.882 68.136v18.904h-61.646v-18.904c0-32.801-49.882-68.136-49.882-68.136z" fill="#ffd86e"/><path d="m305.799 391.994s-49.882 35.335-49.882 68.136v18.904h30.905v-18.904c0-32.801 49.882-68.136 49.882-68.136z" fill="#ffcd55"/><path d="m256 156.207c-4.143 0-7.5 3.358-7.5 7.5v32.652c0 4.142 3.357 7.5 7.5 7.5s7.5-3.358 7.5-7.5v-32.652c0-4.143-3.357-7.5-7.5-7.5z" fill="#ffd86e"/><ellipse cx="256" cy="239.517" fill="#ca97e7" rx="36.056" ry="51.509"/><path d="m256 188.008c-5.531 0-10.769 1.784-15.453 4.964 12.181 8.268 20.604 25.999 20.604 46.545s-8.423 38.278-20.604 46.545c4.684 3.179 9.922 4.964 15.453 4.964 19.913 0 36.056-23.061 36.056-51.509s-16.143-51.509-36.056-51.509z" fill="#be80e2"/><path d="m330.552 53.582c-4.101-.121-7.607 3.099-7.752 7.236-.008.243-.956 24.572-10.177 48.348-11.67 30.092-30.721 45.35-56.623 45.35s-44.953-15.258-56.623-45.35c-9.221-23.776-10.169-48.105-10.177-48.348-.142-4.137-3.63-7.38-7.746-7.239-4.141.138-7.384 3.606-7.246 7.746.036 1.082 1.001 26.799 11.048 52.913 13.912 36.163 38.375 55.278 70.744 55.278s56.832-19.115 70.744-55.278c10.047-26.114 11.012-51.831 11.048-52.913.138-4.138-3.103-7.602-7.24-7.743z" fill="#ffcd55"/></g></svg>