<svg id="Flat" height="512" viewBox="0 0 512 512" width="512" xmlns="http://www.w3.org/2000/svg"><path d="m152 424s-16-64-80-64h-48l32 80h96z" fill="#e0e2e5"/><rect fill="#3a98e4" height="32" rx="16" width="160" x="280" y="24"/><path d="m328 24h64v32h-64z" fill="#e0e2e5"/><circle cx="72" cy="440" fill="#6a7073" r="48"/><path d="m344 56 80 384h32l-80-384z" fill="#e0e2e5"/><path d="m456 440-53.33-256h-32l17.5 84.016-92.17 155.984h-224a16 16 0 0 0 0 32h240l85.609-142.683 26.391 126.683z" fill="#3a98e4"/><circle cx="440" cy="440" fill="#6a7073" r="48"/><circle cx="440" cy="440" fill="#e0e2e5" r="16"/></svg>