<svg id="Capa_1" enable-background="new 0 0 496.68 496.68" height="512" viewBox="0 0 496.68 496.68" width="512" xmlns="http://www.w3.org/2000/svg"><g><path d="m183.063 442.602 119.299 7.755 96.632-27.439 29.516-6.04c31.136-39.224 49.73-88.853 49.73-142.82 0-80.36-41.23-151.07-103.68-192.17l-21.173-35.64h-209.302l-21.705 35.64c-62.58 41.19-104 112.08-103.94 192.36.051 60.17 23.221 114.924 61.101 155.873z" fill="#a6e7f0"/><g><path d="m79.541 430.12 36.272 7.668 29.821-19.466c-31.792-39.399-50.848-89.504-50.894-144.062-.06-80.28 41.36-151.17 103.94-192.36l21.705-35.64h-76.289l-21.705 35.64c-62.58 41.19-104 112.08-103.94 192.36.051 60.164 23.217 114.913 61.09 155.86z" fill="#6bd9e7"/><g id="XMLID_282_"><g><path d="m428.531 416.88c-30.31 38.19-72.52 66.51-121.01 79.39-1.03.27-2.09.41-3.16.41h-112c-1.06 0-2.13-.14-3.16-.41-42.7-11.35-80.53-34.66-109.66-66.15l15.58-6.45c33.97-14.03 72.27-13.12 105.53 2.5l3.22 1.51c36.54 17.16 78.96 16.49 114.93-1.83 18.45-9.4 38.79-14.24 59.34-14.24 5.38 0 10.78.33 16.16 1z" fill="#fdd79b"/></g></g><g id="XMLID_283_"><g><g fill="#feca9c"><path d="m434.201 349.77-23.04-48.12 23.04-48.12c2.48-5.18-1.3-11.18-7.04-11.18-9.78 0-19.4 1.67-28.48 4.88s-17.62 7.95-25.23 14.08l-34.49 27.82-9.594 6.816v15.763l9.594 2.471 34.49 27.82c15.21 12.26 34.16 18.95 53.71 18.95 4.51 0 7.81-3.7 7.81-7.81 0-1.11-.24-2.26-.77-3.37z"/><path d="m321.919 241.347c4.245-7.221.323-16.491-7.815-18.474l-25.867-6.301c-28.465-6.934-58.531.052-81.024 18.825l-30.94 33.441 124.612 16.66z"/><path d="m313.359 355.332c0 20.013-19.41 34.284-38.513 28.316l-43.981-13.741-40.634-11.46 123.128-58.543z"/></g><path d="m338.961 289.13v25.05l-5.62 6.87c-48.75 59.59-137.71 65.56-193.99 13.02l-23.11-21.58c-6.27-5.86-6.27-15.81 0-21.67l23.11-21.58c56.28-52.54 145.24-46.57 193.99 13.02z" fill="#fea95c"/></g></g><path d="m179.524 248.85 4.817 7.029c19.105 27.878 19.574 64.218 1.194 92.58l-6.277 9.686c-.026.04-.051.08-.076.12l-.741 1.193c4.754 2.007 9.594 3.732 14.498 5.158l5.184-8c21.682-33.458 21.129-76.328-1.409-109.216l-4.975-7.26c-.105-.153-.216-.303-.333-.448l-.341-.426c-5.009 1.537-9.949 3.377-14.793 5.524z" fill="#fe9738"/><g><path d="m156.194 301.8c-4.142 0-7.5-3.358-7.5-7.5v-5.174c0-4.142 3.358-7.5 7.5-7.5s7.5 3.358 7.5 7.5v5.174c0 4.142-3.358 7.5-7.5 7.5z" fill="#918291"/></g><path d="m235.315 315.524 5.526 2.949c12.699 6.776 28.039-2.425 28.039-16.819 0-14.393-15.34-23.595-28.039-16.819l-5.526 2.949c-1.722.919-2.798 2.712-2.798 4.664v18.412c.001 1.952 1.076 3.745 2.798 4.664z" fill="#fe9738"/><g fill="#6bd9e7"><circle cx="122.187" cy="206.264" r="17.885"/><circle cx="202.565" cy="145.732" r="33.074"/></g></g><path d="m192.361 496.68h76.287c-1.059 0-2.129-.14-3.158-.41-49.78-13.22-92.919-42.729-123.386-82.465-15.968.36-31.902 3.636-46.983 9.865l-15.58 6.45c29.13 31.49 66.96 54.8 109.66 66.15 1.03.27 2.1.41 3.16.41z" fill="#fccd7f"/><path d="m402.331 21.4v39.1c0 11.81-9.58 21.39-21.4 21.39h-6.35-252.18-6.61c-11.82 0-21.4-9.58-21.4-21.39v-39.1c0-11.82 9.58-21.4 21.4-21.4h265.14c11.82 0 21.4 9.58 21.4 21.4z" fill="#fdd79b"/></g></svg>