<svg height="512" viewBox="0 0 128 128" width="512" xmlns="http://www.w3.org/2000/svg"><g><path d="m15.953 126.247a7.766 7.766 0 0 1 -7.766-7.766v-50.416h15.531v50.416a7.765 7.765 0 0 1 -7.765 7.766z" fill="#3c3a41"/><path d="m33.038 92.5a9.32 9.32 0 0 1 -9.32-9.32 9.32 9.32 0 0 1 9.32-9.319 9.32 9.32 0 0 1 9.32 9.319 9.32 9.32 0 0 1 -9.32 9.32z" fill="#159ce4"/><path d="m19.952 68.065h-8a66.39 66.39 0 0 1 66.315-66.315h2.17a4 4 0 0 1 4 4 4 4 0 0 1 -4 4h-2.17a58.381 58.381 0 0 0 -58.315 58.315z" fill="#787780"/><path d="m8.187 103.125h15.532v8.212h-15.532z" fill="#ff9f22"/><path d="m108.186 67.484a1.75 1.75 0 0 1 -1.75-1.75v-6.484a8.425 8.425 0 0 0 -8.416-8.417h-9.92a11.917 11.917 0 1 1 0-23.833h11.336a9.75 9.75 0 0 0 0-19.5h-15a1.75 1.75 0 0 1 0-3.5h15a13.25 13.25 0 0 1 0 26.5h-11.336a8.417 8.417 0 1 0 0 16.833h9.92a11.93 11.93 0 0 1 11.916 11.917v6.484a1.749 1.749 0 0 1 -1.75 1.75z" fill="#81c8ee"/><path d="m108.187 109.854s-7.378 3.67-7.378 8.2a15.782 15.782 0 0 0 2.6 8.2l4.774-8.2 4.773 8.2a15.778 15.778 0 0 0 2.605-8.2c.004-4.53-7.374-8.2-7.374-8.2z" fill="#3c3a41"/><path d="m96.705 85.438a19.738 19.738 0 0 0 -.145 2.356c0 12.184 11.627 22.06 11.627 22.06s11.626-9.876 11.626-22.06a19.738 19.738 0 0 0 -.145-2.356 36.952 36.952 0 0 1 -22.963 0z" fill="#ff9f22"/><path d="m108.187 65.734s-10.154 8.629-11.482 19.7a36.952 36.952 0 0 0 22.963 0c-1.327-11.071-11.481-19.7-11.481-19.7z" fill="#fec478"/><path d="m109.1 80.789h-1.827a1.75 1.75 0 0 1 0-3.5h1.827a1.75 1.75 0 0 1 0 3.5z" fill="#3c3a41"/></g></svg>