<svg height="512" viewBox="0 0 64 64" width="512" xmlns="http://www.w3.org/2000/svg"><g id="Smart_light" data-name="Smart light"><path d="m48.159 17.116a1.908 1.908 0 0 1 .841 1.559v2.325h4v-2.32a1.956 1.956 0 0 1 .87-1.584 5 5 0 1 0 -5.711.02z" fill="#ffb655"/><path d="m49 22a2 2 0 0 0 4 0v-1h-4z" fill="#939598"/><path d="m33.473 48.918a13 13 0 0 1 -8.815-23.642 2.008 2.008 0 0 0 .7-2.556l-.016-.034a2 2 0 0 0 -2.921-.729 17 17 0 1 0 19.163.009 2.015 2.015 0 0 0 -2.945.742 1.971 1.971 0 0 0 .624 2.516 13 13 0 0 1 -5.794 23.694z" fill="#ff3051"/><path d="m32 17a2 2 0 0 0 -2 2v16a2 2 0 0 0 4 0v-16a2 2 0 0 0 -2-2z" fill="#ff3051"/><g fill="#ff7956"><path d="m51 6a1 1 0 0 1 -1-1v-2a1 1 0 0 1 2 0v2a1 1 0 0 1 -1 1z"/><path d="m47 7.072a1 1 0 0 1 -.867-.5l-1-1.732a1 1 0 1 1 1.732-1l1 1.732a1 1 0 0 1 -.865 1.5z"/><path d="m44.071 10a.992.992 0 0 1 -.5-.134l-1.732-1a1 1 0 0 1 1-1.732l1.732 1a1 1 0 0 1 -.5 1.866z"/><path d="m43 14h-2a1 1 0 0 1 0-2h2a1 1 0 0 1 0 2z"/><path d="m61 14h-2a1 1 0 0 1 0-2h2a1 1 0 0 1 0 2z"/><path d="m57.929 10a1 1 0 0 1 -.5-1.866l1.732-1a1 1 0 1 1 1 1.732l-1.732 1a.992.992 0 0 1 -.5.134z"/><path d="m42.341 19a1 1 0 0 1 -.5-1.866l1.732-1a1 1 0 0 1 1 1.732l-1.732 1a.992.992 0 0 1 -.5.134z"/><path d="m59.659 19a.992.992 0 0 1 -.5-.134l-1.732-1a1 1 0 1 1 1-1.732l1.732 1a1 1 0 0 1 -.5 1.866z"/><path d="m55 7.072a1 1 0 0 1 -.865-1.5l1-1.732a1 1 0 0 1 1.732 1l-1 1.732a1 1 0 0 1 -.867.5z"/></g><path d="m11 16a1 1 0 0 1 -1-1 5.006 5.006 0 0 1 5-5 1 1 0 0 1 0 2 3 3 0 0 0 -3 3 1 1 0 0 1 -1 1z" fill="#006df0"/><path d="m3 16a1 1 0 0 1 -1-1 13.015 13.015 0 0 1 13-13 1 1 0 0 1 0 2 11.013 11.013 0 0 0 -11 11 1 1 0 0 1 -1 1z" fill="#006df0"/><path d="m7 16a1 1 0 0 1 -1-1 9.011 9.011 0 0 1 9-9 1 1 0 0 1 0 2 7.008 7.008 0 0 0 -7 7 1 1 0 0 1 -1 1z" fill="#006df0"/><path d="m7.5 32a.976.976 0 0 1 -.2-.02 1 1 0 0 1 -.78-1.18 26.071 26.071 0 0 1 25.48-20.8 1 1 0 0 1 0 2 24.063 24.063 0 0 0 -23.52 19.2 1 1 0 0 1 -.98.8z" fill="#9cdd05"/><path d="m7 37a1 1 0 0 1 -1-1q0-.522.021-1.04a1 1 0 0 1 2 .08q-.021.477-.021.96a1 1 0 0 1 -1 1z" fill="#9cdd05"/><path d="m32 62a1 1 0 0 1 0-2 24.063 24.063 0 0 0 23.52-19.2 1 1 0 1 1 1.96.4 26.071 26.071 0 0 1 -25.48 20.8z" fill="#9cdd05"/><path d="m56.981 38h-.039a1 1 0 0 1 -.961-1.038c.012-.319.019-.64.019-.962a1 1 0 0 1 2 0q0 .522-.021 1.038a1 1 0 0 1 -.998.962z" fill="#9cdd05"/><path d="m11 51h-2v-2a1 1 0 0 0 -2 0v2h-2a1 1 0 0 0 0 2h2v2a1 1 0 0 0 2 0v-2h2a1 1 0 0 0 0-2z" fill="#ff3051"/><path d="m18 60h-6a1 1 0 0 1 0-2h6a1 1 0 0 1 0 2z" fill="#ffcd00"/></g></svg>