<svg height="512pt" viewBox="-79 0 512 512.001" width="512pt" xmlns="http://www.w3.org/2000/svg"><path d="m333.410156 512h-312.816406c-11.375 0-20.59375-9.21875-20.59375-20.59375v-470.8125c0-11.375 9.21875-20.59375 20.59375-20.59375h312.816406c11.371094 0 20.589844 9.21875 20.589844 20.59375v470.8125c0 11.375-9.21875 20.59375-20.589844 20.59375zm0 0" fill="#ffe0b2"/><path d="m333.417969 0h-30.871094c11.367187 0 20.582031 9.226562 20.582031 20.605469v470.792969c0 11.378906-9.214844 20.601562-20.582031 20.601562h30.871094c11.367187 0 20.582031-9.222656 20.582031-20.601562v-470.792969c0-11.378907-9.214844-20.605469-20.582031-20.605469zm0 0" fill="#ffcc80"/><path d="m323.285156 30.90625v450.1875h-292.570312v-450.1875zm0 0" fill="#4380a0"/><path d="m323.285156 23.40625h-292.570312c-4.140625 0-7.5 3.355469-7.5 7.5v450.1875c0 4.140625 3.359375 7.5 7.5 7.5h292.570312c4.144532 0 7.5-3.359375 7.5-7.5v-450.1875c0-4.144531-3.355468-7.5-7.5-7.5zm-7.5 450.1875h-277.570312v-435.1875h277.570312zm0 0" fill="#2b6182"/><path d="m269.714844 361.078125c0 51.207031-41.507813 92.714844-92.714844 92.714844s-92.714844-41.507813-92.714844-92.714844 41.507813-92.714844 92.714844-92.714844 92.714844 41.507813 92.714844 92.714844zm0 0" fill="#ffe0b2"/><path d="m177 260.863281c-55.257812 0-100.214844 44.957031-100.214844 100.214844 0 55.261719 44.957032 100.21875 100.214844 100.21875s100.214844-44.957031 100.214844-100.21875c0-55.257813-44.957032-100.214844-100.214844-100.214844zm0 185.433594c-46.988281 0-85.214844-38.230469-85.214844-85.21875s38.226563-85.214844 85.214844-85.214844 85.214844 38.226563 85.214844 85.214844-38.226563 85.21875-85.214844 85.21875zm0 0" fill="#2b6182"/><g fill="#ff5622"><path d="m189.878906 105.59375h-25.757812c-5.6875 0-10.300782-4.613281-10.300782-10.300781v-24.726563c0-5.6875 4.613282-10.300781 10.300782-10.300781h25.757812c5.6875 0 10.300782 4.613281 10.300782 10.300781v24.722656c0 5.691407-4.613282 10.304688-10.300782 10.304688zm0 0"/><path d="m120.855469 105.59375h-25.753907c-5.691406 0-10.304687-4.613281-10.304687-10.300781v-24.726563c0-5.6875 4.613281-10.300781 10.304687-10.300781h25.753907c5.691406 0 10.300781 4.613281 10.300781 10.300781v24.722656c0 5.691407-4.609375 10.304688-10.300781 10.304688zm0 0"/><path d="m258.898438 105.59375h-25.753907c-5.691406 0-10.300781-4.613281-10.300781-10.300781v-24.726563c0-5.6875 4.609375-10.300781 10.300781-10.300781h25.753907c5.691406 0 10.304687 4.613281 10.304687 10.300781v24.722656c0 5.691407-4.613281 10.304688-10.304687 10.304688zm0 0"/><path d="m190.390625 172.554688h-25.753906c-5.6875 0-10.300781-4.613282-10.300781-10.300782v-24.726562c0-5.6875 4.613281-10.300782 10.300781-10.300782h25.753906c5.691406 0 10.304687 4.613282 10.304687 10.300782v24.726562c0 5.6875-4.613281 10.300782-10.304687 10.300782zm0 0"/><path d="m121.371094 172.554688h-25.753906c-5.691407 0-10.304688-4.613282-10.304688-10.300782v-24.726562c0-5.6875 4.613281-10.300782 10.304688-10.300782h25.753906c5.6875 0 10.300781 4.613282 10.300781 10.300782v24.726562c0 5.6875-4.613281 10.300782-10.300781 10.300782zm0 0"/><path d="m259.414062 172.554688h-25.753906c-5.691406 0-10.300781-4.613282-10.300781-10.300782v-24.726562c0-5.6875 4.609375-10.300782 10.300781-10.300782h25.753906c5.691407 0 10.304688 4.613282 10.304688 10.300782v24.726562c-.003906 5.6875-4.613281 10.300782-10.304688 10.300782zm0 0"/><path d="m190.90625 240.546875h-25.753906c-5.691406 0-10.300782-4.613281-10.300782-10.300781v-24.726563c0-5.6875 4.609376-10.300781 10.300782-10.300781h25.753906c5.691406 0 10.304688 4.613281 10.304688 10.300781v24.726563c0 5.6875-4.613282 10.300781-10.304688 10.300781zm0 0"/><path d="m121.886719 240.546875h-25.757813c-5.6875 0-10.300781-4.613281-10.300781-10.300781v-24.726563c0-5.6875 4.613281-10.300781 10.300781-10.300781h25.757813c5.6875 0 10.300781 4.613281 10.300781 10.300781v24.726563c0 5.6875-4.613281 10.300781-10.300781 10.300781zm0 0"/><path d="m259.929688 240.546875h-25.753907c-5.691406 0-10.300781-4.613281-10.300781-10.300781v-24.726563c0-5.6875 4.609375-10.300781 10.300781-10.300781h25.753907c5.691406 0 10.304687 4.613281 10.304687 10.300781v24.726563c-.003906 5.6875-4.613281 10.300781-10.304687 10.300781zm0 0"/></g><path d="m150.828125 325.4375c0-15.019531 12.65625-27.085938 27.882813-26.117188 12.835937.820313 23.339843 11.128907 24.371093 23.949219.707031 8.757813-2.90625 16.707031-8.9375 21.941407-1.359375 1.179687-2.097656 2.929687-2.097656 4.730468v51.324219c0 7.96875-6.03125 14.859375-13.984375 15.40625-8.746094.601563-16.109375-6.304687-16.109375-15.011719v-51.71875c0-1.820312-.761719-3.566406-2.128906-4.761718-5.511719-4.796876-8.996094-11.863282-8.996094-19.742188zm0 0" fill="#224f69"/></svg>