<svg height="512pt" viewBox="-14 0 512 512" width="512pt" xmlns="http://www.w3.org/2000/svg"><path d="m142.25 71.125c0 39.28125-31.84375 71.125-71.125 71.125s-71.125-31.84375-71.125-71.125 31.84375-71.125 71.125-71.125 71.125 31.84375 71.125 71.125zm0 0" fill="#ff738b"/><path d="m92.433594 3.25c10.976562 12.519531 17.644531 28.90625 17.644531 46.867188 0 39.28125-31.84375 71.125-71.125 71.125-7.421875 0-14.578125-1.140626-21.304687-3.253907 13.035156 14.863281 32.152343 24.261719 53.476562 24.261719 39.28125 0 71.125-31.84375 71.125-71.125 0-31.859375-20.945312-58.820312-49.816406-67.875zm0 0" fill="#ee4a84"/><g fill="#ff6914"><path d="m419.109375 376.417969c0-74.628907-68.636719-135.125-153.300781-135.125-84.664063 0-153.296875 60.496093-153.296875 135.125 0 74.628906 68.632812 135.125 153.296875 135.125 84.664062 0 153.300781-60.496094 153.300781-135.125zm0 0"/><path d="m155.429688 332.84375c0 24.347656-25.558594 39.105469-57.085938 39.105469-31.53125 0-51.109375-14.757813-51.109375-39.105469s19.578125-39.105469 51.109375-39.105469c31.527344 0 57.085938 14.757813 57.085938 39.105469zm0 0"/><path d="m376.1875 332.84375c0 24.347656 25.558594 39.105469 57.089844 39.105469 31.527344 0 51.105468-14.757813 51.105468-39.105469s-19.578124-39.105469-51.105468-39.105469c-31.53125 0-57.089844 14.757813-57.089844 39.105469zm0 0"/></g><path d="m376.1875 332.84375c0 24.347656 25.558594 39.105469 57.089844 39.105469 31.527344 0 51.105468-14.757813 51.105468-39.105469s-19.578124-39.105469-51.105468-39.105469c-31.53125 0-57.089844 14.757813-57.089844 39.105469zm0 0" fill="#ed500a"/><path d="m265.808594 241.292969c-16.179688 0-31.769532 2.214843-46.410156 6.308593 61.972656 17.335938 106.886718 68.449219 106.886718 128.816407 0 60.367187-44.914062 111.480469-106.886718 128.816406 14.640624 4.09375 30.230468 6.308594 46.410156 6.308594 84.664062 0 153.300781-60.496094 153.300781-135.125 0-74.628907-68.636719-135.125-153.300781-135.125zm0 0" fill="#ed500a"/><path d="m187.898438 464.898438c0 33.941406-23.898438 47.101562-53.378907 47.101562-29.484375 0-53.382812-13.160156-53.382812-47.101562 0-33.9375 23.898437-70.425782 53.382812-70.425782 29.480469 0 53.378907 36.488282 53.378907 70.425782zm0 0" fill="#ff6914"/><path d="m134.519531 394.472656c-5.171875 0-10.167969 1.125-14.894531 3.160156 22.234375 9.5625 38.488281 39.277344 38.488281 67.265626 0 27.988281-16.257812 41.835937-38.488281 45.835937 4.730469.851563 9.722656 1.265625 14.894531 1.265625 29.480469 0 53.378907-13.160156 53.378907-47.101562 0-33.9375-23.898438-70.425782-53.378907-70.425782zm0 0" fill="#ed500a"/><path d="m450.480469 463.644531c0 33.941407-23.898438 47.101563-53.378907 47.101563-29.484374 0-53.382812-13.160156-53.382812-47.101563 0-33.9375 23.898438-70.425781 53.382812-70.425781 29.480469 0 53.378907 36.488281 53.378907 70.425781zm0 0" fill="#ff6914"/><path d="m397.101562 393.21875c-5.171874 0-10.167968 1.125-14.894531 3.160156 22.234375 9.5625 38.488281 39.277344 38.488281 67.265625s-16.257812 41.835938-38.488281 45.835938c4.730469.851562 9.722657 1.265625 14.894531 1.265625 29.480469 0 53.378907-13.160156 53.378907-47.101563 0-33.9375-23.902344-70.425781-53.378907-70.425781zm0 0" fill="#ed500a"/><path d="m395.832031 227.847656c0-63.296875-58.210937-114.609375-130.023437-114.609375-71.808594 0-130.023438 51.3125-130.023438 114.609375s58.214844 114.609375 130.023438 114.609375c71.8125 0 130.023437-51.3125 130.023437-114.609375zm0 0" fill="#ff6914"/><path d="m265.808594 113.238281c-9.296875 0-18.363282.867188-27.105469 2.5 58.796875 10.992188 102.914063 57.003907 102.914063 112.109375 0 55.101563-44.117188 101.117188-102.914063 112.105469 8.742187 1.636719 17.808594 2.503906 27.105469 2.503906 71.808594 0 130.023437-51.3125 130.023437-114.609375s-58.214843-114.609375-130.023437-114.609375zm0 0" fill="#ed500a"/><path d="m327.894531 266.519531c0 34.289063-27.796875 52.742188-62.085937 52.742188-34.289063 0-62.085938-18.453125-62.085938-52.742188 0-34.289062 27.796875-46.238281 62.085938-46.238281 34.289062 0 62.085937 11.949219 62.085937 46.238281zm0 0" fill="#ffded5"/><path d="m265.808594 220.28125c-3.902344 0-7.710938.164062-11.414063.488281 28.835938 2.527344 50.671875 15.363281 50.671875 45.75s-21.835937 48.328125-50.671875 52.019531c3.703125.472657 7.511719.722657 11.414063.722657 34.289062 0 62.085937-18.453125 62.085937-52.742188 0-34.289062-27.796875-46.238281-62.085937-46.238281zm0 0" fill="#f7c6ba"/><path d="m321.238281 196.105469c0 8.398437-6.808593 15.203125-15.207031 15.203125-8.394531 0-15.203125-6.804688-15.203125-15.203125 0-8.398438 6.808594-15.207031 15.203125-15.207031 8.398438 0 15.207031 6.808593 15.207031 15.207031zm0 0" fill="#682c54"/><path d="m242.007812 196.105469c0 8.398437-6.808593 15.203125-15.207031 15.203125-8.398437 0-15.203125-6.804688-15.203125-15.203125 0-8.398438 6.804688-15.207031 15.203125-15.207031 8.398438 0 15.207031 6.808593 15.207031 15.207031zm0 0" fill="#682c54"/><path d="m115.089844 158.324219c15.382812-15.382813 31.519531-24.1875 49.3125-6.394531 17.789062 17.789062 9.664062 34.601562-5.71875 49.984374-15.382813 15.382813-32.199219 23.511719-49.988282 5.71875-17.789062-17.789062-8.984374-33.925781 6.394532-49.308593zm0 0" fill="#ff6914"/><path d="m416.527344 158.324219c-15.382813-15.382813-31.519532-24.1875-49.3125-6.394531-17.789063 17.789062-9.664063 34.601562 5.71875 49.984374 15.382812 15.382813 32.199218 23.511719 49.988281 5.71875 17.792969-17.789062 8.988281-33.925781-6.394531-49.308593zm0 0" fill="#ff6914"/><path d="m416.527344 158.324219c-15.382813-15.382813-31.519532-24.1875-49.3125-6.394531-17.789063 17.789062-9.664063 34.601562 5.71875 49.984374 15.382812 15.382813 32.199218 23.511719 49.988281 5.71875 17.792969-17.789062 8.988281-33.925781-6.394531-49.308593zm0 0" fill="#ed500a"/><path d="m265.808594 325.101562c-4.246094 0-7.6875-3.445312-7.6875-7.691406v-30.847656c0-4.246094 3.441406-7.6875 7.6875-7.6875s7.6875 3.441406 7.6875 7.6875v30.847656c0 4.246094-3.441406 7.691406-7.6875 7.691406zm0 0" fill="#682c54"/><path d="m291.511719 258.394531c0 11.570313-11.507813 30.078125-25.703125 30.078125-14.195313 0-25.703125-18.507812-25.703125-30.078125 0-11.566406 11.507812-13.578125 25.703125-13.578125 14.195312 0 25.703125 2.011719 25.703125 13.578125zm0 0" fill="#682c54"/><path d="m273.777344 245.105469c.109375.71875.171875 1.476562.171875 2.285156 0 11.566406-11.507813 30.074219-25.703125 30.074219-.289063 0-.574219-.019532-.863282-.035156 4.667969 6.238281 11.195313 11.042968 18.425782 11.042968 14.195312 0 25.703125-18.507812 25.703125-30.078125 0-9.296875-7.441407-12.421875-17.734375-13.289062zm0 0" fill="#542a48"/><path d="m71.125 346.042969c-4.246094 0-7.6875-3.441407-7.6875-7.6875v-215.015625c0-4.246094 3.441406-7.6875 7.6875-7.6875s7.6875 3.441406 7.6875 7.6875v215.015625c0 4.246093-3.441406 7.6875-7.6875 7.6875zm0 0" fill="#ee4a84"/><path d="m63.777344 138.066406-7.96875 13.808594c-3.265625 5.65625.8125 12.726562 7.34375 12.726562h15.945312c6.53125 0 10.613282-7.070312 7.347656-12.726562l-7.972656-13.808594c-3.265625-5.65625-11.429687-5.65625-14.695312 0zm0 0" fill="#ff738b"/><path d="m63.777344 138.066406-7.96875 13.808594c-3.265625 5.65625.8125 12.726562 7.34375 12.726562h15.945312c6.53125 0 10.613282-7.070312 7.347656-12.726562l-7.972656-13.808594c-3.265625-5.65625-11.429687-5.65625-14.695312 0zm0 0" fill="#ee4a84"/></svg>