<?xml version="1.0" encoding="iso-8859-1"?>
<!-- Generator: Adobe Illustrator 19.0.0, SVG Export Plug-In . SVG Version: 6.00 Build 0)  -->
<svg version="1.1" id="Capa_1" xmlns="http://www.w3.org/2000/svg" xmlns:xlink="http://www.w3.org/1999/xlink" x="0px" y="0px"
	 viewBox="0 0 512 512" style="enable-background:new 0 0 512 512;" xml:space="preserve">
<path style="fill:#53CEEA;" d="M512,256c0,25.736-3.803,50.594-10.877,74.031c-17.241,57.198-53.959,105.953-102.452,138.564
	C357.909,496.003,308.83,512,256,512s-101.909-15.997-142.67-43.405c-48.494-32.611-85.211-81.366-102.452-138.564
	C3.803,306.594,0,281.736,0,256C0,114.615,114.615,0,256,0S512,114.615,512,256z"/>
<rect x="46.77" y="0" style="fill:#F9CEBB;" width="418.461" height="98.837"/>
<rect x="46.77" y="0" style="fill:#F4B298;" width="106.402" height="98.837"/>
<path style="fill:#D6D6D6;" d="M23.954,268.033c0,41.652,12.735,79.895,33.989,109.863c27.255,38.463,68.54,63.285,114.885,64.153
	c0.843,0.013,1.674,0.024,2.53,0.024h161.28c0.843,0,1.686-0.013,2.53-0.024c82.449-1.553,148.875-78.868,148.875-174.015
	c0-1.821-0.024-3.63-0.086-5.439H24.039C23.978,264.403,23.954,266.212,23.954,268.033z"/>
<path style="fill:#F9CEBB;" d="M215.876,366.049l-59.956,59.956l-42.59,42.59c-37.407-25.161-67.814-59.925-87.667-100.77
	c-5.893-12.089-10.846-24.722-14.785-37.794l84.49-84.49L215.876,366.049z"/>
<path style="fill:#F4B298;" d="M215.876,366.049l-59.956,59.956c-5.469-29.594-22.948-57.053-39.615-77.584
	c-17.089-21.049-48.72-22.518-67.892-3.346l-22.75,22.749c-5.893-12.089-10.846-24.722-14.785-37.794l84.49-84.49L215.876,366.049z"
	/>
<path style="fill:#F9CEBB;" d="M501.123,330.031c-12.915,42.862-36.77,80.98-68.326,111.125
	c-10.553,10.073-21.974,19.257-34.126,27.439L296.124,366.049l120.508-120.508l48.034,48.034L501.123,330.031z"/>
<path style="fill:#F4B298;" d="M395.987,404.346l36.81,36.81c-10.553,10.073-21.974,19.257-34.126,27.439L296.124,366.049
	l120.508-120.508l48.034,48.034c0,0-48.873,27.676-73.37,65.123C381.865,373.115,383.805,392.164,395.987,404.346z"/>
<g>
	<path style="fill:#6CD9CD;" d="M298.7,402.963c-0.427,0-0.845-0.007-1.265-0.013c-0.422,0.004-0.843,0.013-1.265,0.013H298.7z"/>
	<path style="fill:#6CD9CD;" d="M215.826,402.963c-0.422,0-0.843-0.007-1.265-0.013c-0.42,0.004-0.837,0.013-1.265,0.013H215.826z"
		/>
</g>
<path style="fill:#F9F9F9;" d="M488.036,69.553v193.042c-41.102,0-78.33,17.747-105.255,46.468
	c-26.949,28.721-43.608,68.381-43.608,112.197v20.814H172.832v-20.814c0-22.379-4.338-43.657-12.173-62.955l-0.013-0.013
	c-9.924-24.444-25.458-45.71-44.878-61.94c-25.288-21.144-57.174-33.758-91.811-33.758V69.553c0-12.091,9.802-21.893,21.893-21.893
	h420.292C478.234,47.66,488.036,57.461,488.036,69.553z"/>
<g>
	<path style="fill:#E8E8E8;" d="M73.896,47.66v224.089c-15.619-5.928-32.425-9.154-49.939-9.154V69.553
		c0-12.091,9.802-21.893,21.893-21.893C45.85,47.66,73.896,47.66,73.896,47.66z"/>
	<path style="fill:#E8E8E8;" d="M339.167,421.259c0-22.379,4.338-43.657,12.173-62.955c-0.574,0.632-12.62,13.799-33.256,29.512
		c-36.626,27.89-87.543,27.89-124.168,0c-20.635-15.713-32.682-28.881-33.256-29.513c7.835,19.298,12.173,40.577,12.173,62.955
		v20.789c-0.002,0-0.004,0-0.006,0v0.024h0.006h166.333h0.006v-0.024c-0.002,0-0.004,0-0.006,0v-20.788H339.167z"/>
</g>
<path style="fill:#D6D6D6;" d="M23.956,128.619h464.083l-0.002-59.068c0-12.091-9.802-21.892-21.893-21.892H45.85
	c-12.091,0-21.893,9.801-21.893,21.893L23.956,128.619z"/>
<g>
	<path style="fill:#FF80B0;" d="M463.189,232.059h23.913c6.097,0,11.039-4.942,11.039-11.039v-67.256
		c0-6.097-4.942-11.039-11.039-11.039h-23.913c-15.32,0-27.74,12.42-27.74,27.74v33.856
		C435.449,219.64,447.868,232.059,463.189,232.059z"/>
	<path style="fill:#FF80B0;" d="M48.805,232.059H24.893c-6.097,0-11.039-4.942-11.039-11.039v-67.256
		c0-6.097,4.942-11.039,11.039-11.039h23.912c15.32,0,27.74,12.42,27.74,27.74v33.856C76.545,219.64,64.125,232.059,48.805,232.059z
		"/>
	<path style="fill:#FF80B0;" d="M285.968,110.081h-59.941c-6.385,0-11.563-5.176-11.563-11.563V77.759
		c0-6.385,5.176-11.563,11.563-11.563h59.941c6.385,0,11.563,5.176,11.563,11.563v20.759
		C297.531,104.905,292.354,110.081,285.968,110.081z"/>
</g>
<g>
</g>
<g>
</g>
<g>
</g>
<g>
</g>
<g>
</g>
<g>
</g>
<g>
</g>
<g>
</g>
<g>
</g>
<g>
</g>
<g>
</g>
<g>
</g>
<g>
</g>
<g>
</g>
<g>
</g>
</svg>
