<svg height="512" viewBox="0 0 64 64" width="512" xmlns="http://www.w3.org/2000/svg"><path d="m6 3h52v58h-52z" fill="#f98c96"/><path d="m11 7h42v16h-42z" fill="#dd3e46"/><path d="m6 57h52v4h-52z" fill="#dd3e46"/><g fill="#f4f4e6"><path d="m14 12h3v8h2v-8h3v-2h-8z"/><path d="m24 11v8a1 1 0 0 0 1 1h5v-2h-4v-2h4v-2h-4v-2h4v-2h-5a1 1 0 0 0 -1 1z"/><path d="m32 11v8a1 1 0 0 0 1 1h5v-2h-4v-2h4v-2h-4v-2h4v-2h-5a1 1 0 0 0 -1 1z"/><path d="m47 10v8h-.307l-2.756-7.352a1 1 0 0 0 -.937-.648h-2a1 1 0 0 0 -1 1v9h2v-8h.307l2.756 7.352a1 1 0 0 0 .937.648h2a1 1 0 0 0 1-1v-9z"/></g><path d="m25 35h14v14h-14z" fill="#ffd782"/><path d="m25 49h14v8h-14z" fill="#c63a28"/><path d="m28 38h2v2h-2z" fill="#394d5c"/><path d="m34 38h2v2h-2z" fill="#394d5c"/><path d="m32 46a1 1 0 0 1 -.555-.168l-3-2a1 1 0 0 1 1.11-1.664l2.445 1.632 2.445-1.63a1 1 0 1 1 1.11 1.664l-3 2a1 1 0 0 1 -.555.166z" fill="#394d5c"/><path d="m25 49-9-5-2 4 11 8z" fill="#9e2c23"/><path d="m16 44-2.935-1.761a2.231 2.231 0 0 0 -3.142.914 2.23 2.23 0 0 0 .847 2.909l3.23 1.938z" fill="#ffd782"/><path d="m48 44 2.935-1.761a2.23 2.23 0 0 1 3.142.915 2.23 2.23 0 0 1 -.847 2.909l-3.23 1.937z" fill="#ffd782"/><path d="m39 49 9-5 2 4-11 8z" fill="#9e2c23"/><path d="m30 49h4a0 0 0 0 1 0 0v2a2 2 0 0 1 -2 2 2 2 0 0 1 -2-2v-2a0 0 0 0 1 0 0z" fill="#f9bb4b"/><path d="m16 27.938a3.761 3.761 0 0 0 -4.971 0 3.008 3.008 0 0 0 0 4.531l4.971 4.531 4.971-4.531a3.008 3.008 0 0 0 0-4.531 3.761 3.761 0 0 0 -4.971 0z" fill="#f4f4e6"/><path d="m48 30a3.761 3.761 0 0 0 -4.971 0 3.008 3.008 0 0 0 0 4.531l4.971 4.531 4.97-4.531a3.008 3.008 0 0 0 0-4.531 3.761 3.761 0 0 0 -4.97 0z" fill="#f4f4e6"/></svg>