<svg id="Capa_1" enable-background="new 0 0 512 512" height="512" viewBox="0 0 512 512" width="512" xmlns="http://www.w3.org/2000/svg"><g><g><g><g><path d="m405.998 376.604h30.003v67.082h-30.003z" fill="#3d4b66" transform="matrix(.894 -.447 .447 .894 -138.977 231.577)"/></g><g><path d="m57.459 395.144h67.082v30.003h-67.082z" fill="#3d4b66" transform="matrix(.447 -.894 .894 .447 -316.542 308.116)"/></g></g></g><g><g><g><path d="m405.998 376.604h30.003v67.082h-30.003z" fill="#2e384d" transform="matrix(.894 -.447 .447 .894 -138.977 231.577)"/></g></g></g><g><path d="m512 395.146h-512v-330h512z" fill="#4d5e80"/></g><path d="m256 65.146h256v330h-256z" fill="#3d4b66"/><g><g><path d="m482 170.146v195h-452v-195l226-22.169z" fill="#f3f5f9"/></g></g><path d="m256 365.146h226v-195l-226-22.169z" fill="#e1e6f0"/><g><path d="m30 95.146h452v75h-452z" fill="#ff7f40"/></g><path d="m256 95.146h226v75h-226z" fill="#f25a3c"/><g id="Surf_the_web_1_"><g><path d="m61 95.146h30v30h-30z" fill="#3d4b66"/></g><g><path d="m121 95.146h30v30h-30z" fill="#3d4b66"/></g><g><path d="m181 95.146h30v30h-30z" fill="#3d4b66"/></g><g><path d="m211 335.146h-150v-120h150z" fill="#80eaff"/></g><g><path d="m256 215.146h195v30h-195z" fill="#3d4b66"/></g><g><path d="m256 275.146h105v30h-105z" fill="#3d4b66"/></g></g></g></svg>