<svg id="Layer_5" enable-background="new 0 0 64 64" height="512" viewBox="0 0 64 64" width="512" xmlns="http://www.w3.org/2000/svg"><g><g><g><circle cx="32" cy="21" fill="#e6e9ed" r="19"/></g><g><path d="m6.24 51c-1.17 0-2.23-.48-3-1.24-.76-.77-1.24-1.83-1.24-3 0-1.13.45-2.21 1.24-3l12.66-12.66c1.86 2.94 4.49 5.34 7.61 6.9h-4.51c-.55 0-1 .45-1 1 0 .57.16 1.11.44 1.56l-9.2 9.2c-.79.79-1.87 1.24-3 1.24z" fill="#969faa"/></g><g><circle cx="32" cy="21" fill="#4fc1e9" r="15"/></g><g><path d="m37.73 28h-8.15c-.92 0-1.78.31-2.46.85l-2.9-2.9.65-1.33c-.18-.36-.35-.75-.48-1.15l-1.39-.47v-4l1.39-.47c.13-.4.3-.79.48-1.15l-.65-1.33 2.83-2.83 1.33.65c.36-.18.75-.35 1.15-.48l.47-1.39h4l.47 1.39c.4.13.79.3 1.15.48l1.33-.65 2.83 2.83-.65 1.33c.18.36.35.75.48 1.15l1.39.47v4l-1.39.47c-.13.4-.3.79-.48 1.15l.65 1.33zm-5.73-3c2.21 0 4-1.79 4-4s-1.79-4-4-4-4 1.79-4 4 1.79 4 4 4z" fill="#fcd770"/></g><g><path d="m57 56v3c0 1.66-1.34 3-3 3h-2c-1.66 0-3-1.34-3-3v-3h6.32c.56 0 1.1-.08 1.61-.22z" fill="#838f9b"/></g><g><path d="m24.68 56h6.32v3c0 1.66-1.34 3-3 3h-2c-1.66 0-3-1.34-3-3v-3l.07-.22c.51.14 1.05.22 1.61.22z" fill="#838f9b"/></g><g><path d="m26 42 8 8v6h-3-6.32c-.56 0-1.1-.08-1.61-.22-2.04-.57-3.68-2.19-4.21-4.32l-.7-2.82c-.11-.43-.16-.86-.16-1.3 0-2.95 2.39-5.34 5.34-5.34h.66z" fill="#ffeaa7"/></g><g><path d="m56 42h.66c1.48 0 2.81.6 3.78 1.56.96.97 1.56 2.3 1.56 3.78 0 .44-.05.87-.16 1.3l-.7 2.82c-.53 2.13-2.17 3.75-4.21 4.32-.51.14-1.05.22-1.61.22h-6.32-3v-6l8-8z" fill="#ffeaa7"/></g><g><path d="m34 50h12v6h-12z" fill="#ccd1d9"/></g><g><path d="m28 42h12 14l-8 8h-4-4-4l-8-8z" fill="#fcd770"/></g><g><path d="m54.4 31.56c-.23-2.03-1.94-3.56-3.98-3.56h-20.84c-.92 0-1.78.31-2.46.85-.83.64-3.12 13.15-3.12 13.15h32z" fill="#69d6f4"/></g><g><path d="m24.61 38-.61 4h-.66-2.34c-.83 0-1.58-.34-2.12-.88-.17-.17-.32-.35-.44-.56-.28-.45-.44-.99-.44-1.56 0-.55.45-1 1-1h4.51z" fill="#ccd1d9"/></g><g><path d="m62 39c0 .83-.34 1.58-.88 2.12s-1.29.88-2.12.88h-2.34-.66l-.61-4h5.61c.55 0 1 .45 1 1z" fill="#ccd1d9"/></g><g><circle cx="25" cy="50" fill="#ff826e" r="2"/></g><g><circle cx="55" cy="50" fill="#ff826e" r="2"/></g></g><g><path d="m60.801 42.552c1.299-.662 2.199-1.997 2.199-3.552 0-1.103-.897-2-2-2h-4.757l-.853-5.553c-.259-2.322-2.078-4.103-4.342-4.389.621-1.953.952-3.982.952-6.058 0-11.028-8.972-20-20-20s-20 8.972-20 20c0 3.579.944 6.982 2.64 9.946l-12.106 12.105c-.989.991-1.534 2.307-1.534 3.706 0 2.891 2.352 5.243 5.242 5.243 1.401 0 2.718-.545 3.707-1.536l8.451-8.45c.243.21.51.39.799.537-1.344 1.165-2.199 2.878-2.199 4.791 0 .517.063 1.034.189 1.539l.705 2.816c.55 2.202 2.11 3.916 4.105 4.747v2.556c0 2.206 1.794 4 4 4h2c2.206 0 4-1.794 4-4v-2h16v2c0 2.206 1.794 4 4 4h2c2.206 0 4-1.794 4-4v-2.556c1.995-.831 3.556-2.545 4.105-4.746l.706-2.818c.127-.504.19-1.021.19-1.538 0-1.913-.855-3.626-2.199-4.79zm.199-3.552c0 1.103-.897 2-2 2h-2.142l-.307-2zm-7.593-7.29 1.428 9.29h-13.915c-.488-3.387-3.401-6-6.92-6s-6.432 2.613-6.92 6h-1.915l1.433-9.331c.17-1.522 1.452-2.669 2.982-2.669h20.84c1.53 0 2.812 1.147 2.987 2.71zm-18.407 19.29h2v4h-2zm4 0h2v4h-2zm4 0h2v4h-2zm2.586-2h-11.172l-6-6h23.172zm-16.485-8c.465-2.279 2.484-4 4.899-4s4.434 1.721 4.899 4zm15.526-14h-4.484l.85-.849-.756-1.535c.052-.116.101-.233.146-.35l1.617-.55v-5.432l-1.617-.55c-.046-.117-.095-.234-.146-.35l.755-1.534-3.84-3.841-1.535.755c-.116-.052-.232-.101-.35-.146l-.551-1.618h-5.432l-.551 1.617c-.117.046-.233.095-.35.146l-1.535-.755-3.84 3.841.755 1.534c-.052.116-.101.233-.146.35l-1.617.551v5.432l1.617.551c.046.117.095.233.146.35l-.756 1.534 2.695 2.694c-.585.716-.979 1.592-1.087 2.562l-.208 1.351c-3.981-2.568-6.407-6.951-6.407-11.758 0-7.72 6.28-14 14-14s14 6.28 14 14c0 2.079-.488 4.135-1.373 6zm-17.357.584-1.835-1.835.557-1.133-.228-.446c-.169-.333-.311-.672-.419-1.006l-.155-.476-1.19-.404v-2.568l1.19-.405.155-.476c.108-.334.25-.672.419-1.006l.228-.446-.558-1.133 1.816-1.816 1.133.558.447-.228c.332-.169.67-.311 1.004-.42l.476-.155.406-1.189h2.568l.405 1.19.476.155c.334.109.672.25 1.004.42l.447.228 1.133-.558 1.816 1.816-.558 1.133.228.446c.169.333.311.672.419 1.006l.155.476 1.191.404v2.568l-1.19.405-.155.476c-.108.334-.25.672-.419 1.006l-.228.446.557 1.132-1.252 1.251h-7.733c-.834 0-1.615.221-2.31.584zm-3.821 11.416-.307 2h-2.142c-1.103 0-2-.897-2-2zm8.551-36c9.925 0 18 8.075 18 18 0 2.064-.363 4.076-1.044 6h-2.128c.766-1.897 1.172-3.942 1.172-6 0-8.822-7.178-16-16-16s-16 7.178-16 16c0 5.792 3.081 11.047 8.08 13.896l-.323 2.103c-6.022-3.107-9.757-9.212-9.757-15.999 0-9.925 8.075-18 18-18zm-23.466 46.051c-.611.612-1.425.949-2.292.949-1.788 0-3.242-1.455-3.242-3.243 0-.866.337-1.68.949-2.293l11.79-11.789c1.178 1.638 2.617 3.093 4.268 4.325h-1.007c-1.103 0-2 .897-2 2 0 .472.097.918.247 1.339zm11.3 2.161-.704-2.816c-.086-.345-.13-.7-.13-1.054 0-2.394 1.948-4.342 4.343-4.342h.657 1.586l7.414 7.414v4.586h-8.315c-2.299 0-4.293-1.557-4.851-3.788zm10.166 7.788c0 1.103-.897 2-2 2h-2c-1.103 0-2-.897-2-2v-2.058c.228.023.452.058.685.058h5.315zm26 0c0 1.103-.897 2-2 2h-2c-1.103 0-2-.897-2-2v-2h5.315c.233 0 .457-.035.685-.058zm4.871-10.604-.705 2.817c-.558 2.23-2.552 3.787-4.851 3.787h-8.315v-4.586l7.414-7.414h1.586.657c2.395 0 4.343 1.948 4.343 4.342 0 .354-.044.709-.129 1.054z"/><path d="m55 47c-1.654 0-3 1.346-3 3s1.346 3 3 3 3-1.346 3-3-1.346-3-3-3zm0 4c-.552 0-1-.449-1-1s.448-1 1-1 1 .449 1 1-.448 1-1 1z"/><path d="m28 50c0-1.654-1.346-3-3-3s-3 1.346-3 3 1.346 3 3 3 3-1.346 3-3zm-4 0c0-.551.448-1 1-1s1 .449 1 1-.448 1-1 1-1-.449-1-1z"/><path d="m37 21c0-2.757-2.243-5-5-5s-5 2.243-5 5 2.243 5 5 5 5-2.243 5-5zm-8 0c0-1.654 1.346-3 3-3s3 1.346 3 3-1.346 3-3 3-3-1.346-3-3z"/><circle cx="6" cy="47" r="1"/></g></g></svg>