<?xml version="1.0"?>
<svg xmlns="http://www.w3.org/2000/svg" id="filled_outline" data-name="filled outline" viewBox="0 0 512 512" width="512" height="512"><path d="M168,480l-3.81243-4.76553A128.63336,128.63336,0,0,1,136,394.87786v-.00008a128.63336,128.63336,0,0,1,25.72666-77.18L208,256V96h96V256l46.27334,61.69778A128.63336,128.63336,0,0,1,376,394.87778v.00008a128.63336,128.63336,0,0,1-28.18757,80.35661L344,480Z" style="fill:#ef5e3b"/><path d="M56,480,43.799,467.799A67.5979,67.5979,0,0,1,24,420V420A67.5979,67.5979,0,0,1,43.799,372.201l0,0A68.97048,68.97048,0,0,0,64,323.43149V304L48,272H248l-16,32v19.43149a68.97048,68.97048,0,0,0,20.201,48.7695l0,0A67.5979,67.5979,0,0,1,272,420V420A67.5979,67.5979,0,0,1,252.201,467.799L240,480Z" style="fill:#ffc431"/><polygon points="232 304 64 304 48 272 248 272 232 304" style="fill:#ffb401"/><rect x="200" y="96" width="104" height="32" style="fill:#f5714f"/><path d="M16,32H176l56.74246,35.464A15.44153,15.44153,0,0,1,240,80.55844v0A15.44154,15.44154,0,0,1,224.55846,96H192l44.906,67.359A18.42223,18.42223,0,0,1,240,173.57779v0A18.42218,18.42218,0,0,1,221.57781,192H150.988a32,32,0,0,1-24.58308-11.5141L96,144H16Z" style="fill:#ffceb6"/><rect x="16" y="32" width="80" height="112" style="fill:#548aff"/><path d="M496,128H344l-56.74246,35.464A15.44153,15.44153,0,0,0,280,176.55844v0A15.44154,15.44154,0,0,0,295.44154,192H328l-44.906,67.359A18.42223,18.42223,0,0,0,280,269.57779v0A18.42218,18.42218,0,0,0,298.42219,288H369.012a32,32,0,0,0,24.58308-11.5141L424,240h72Z" style="fill:#ffceb6"/><rect x="424" y="128" width="72" height="112" style="fill:#548aff"/><path d="M339.75977,121.21582,312,138.56592V96a8.00008,8.00008,0,0,0-8-8H246.78223a23.42021,23.42021,0,0,0-9.79981-27.32031L180.24023,25.21582A8.0036,8.0036,0,0,0,176,24H16V40H88v96H16v16H92.25293l28.00586,33.60693A39.89229,39.89229,0,0,0,150.98828,200H200v48h16V200h5.57812a26.42232,26.42232,0,0,0,21.98438-41.07861L228.28149,136H296v12.566l-12.98242,8.11414A23.44146,23.44146,0,0,0,295.44141,200h17.61035L276.4375,254.92139A26.42232,26.42232,0,0,0,298.42188,296H324l19.873,26.49756A119.90912,119.90912,0,0,1,356.69678,344H320v16h42.78516a121.2503,121.2503,0,0,1,4.6958,24H352v16h15.88965a120.52852,120.52852,0,0,1-3.499,24H312v16h47.207a120.528,120.528,0,0,1-17.6416,30.23682L340.15527,472H272v16h72a7.99951,7.99951,0,0,0,6.24707-3.00244l3.8125-4.76563a136.63438,136.63438,0,0,0,2.61426-167.334L344.00049,296h25.01123a39.88993,39.88993,0,0,0,30.72851-14.39258L427.74707,248H496V232H432V136h64V120H344A8.0036,8.0036,0,0,0,339.75977,121.21582ZM232,173.57764A10.43354,10.43354,0,0,1,221.57812,184h-1.57788l-45.59985-60.7998-12.80078,9.5996L199.99976,184H180.00024l-45.59985-60.7998-12.80078,9.5996L159.99976,184h-9.01148a23.93429,23.93429,0,0,1-18.4375-8.63574L104,141.10376V40h69.70605L228.502,74.24756A7.44164,7.44164,0,0,1,224.55859,88H192a7.99956,7.99956,0,0,0-6.65625,12.4375L230.25,167.79639A10.39392,10.39392,0,0,1,232,173.57764ZM217.615,120l-10.66675-16H296v16ZM416,136V237.10376l-28.55176,34.261A23.93194,23.93194,0,0,1,369.01172,280H360l38.40039-51.2002-12.80078-9.5996L340,280H320l38.40039-51.2002-12.80078-9.5996L300,280h-1.57812A10.42283,10.42283,0,0,1,289.75,263.79639l44.90625-67.35889A7.99956,7.99956,0,0,0,328,184H295.44141a7.44133,7.44133,0,0,1-3.94336-13.75195L346.294,136Z"/><path d="M38.1416,366.54443a75.59861,75.59861,0,0,0,0,106.91114l12.20117,12.20117A8.00076,8.00076,0,0,0,56,488H240a8.00076,8.00076,0,0,0,5.65723-2.34326l12.20117-12.20117a75.59861,75.59861,0,0,0,0-106.91114A60.56973,60.56973,0,0,1,240,323.43164v-17.543l15.15527-30.311A7.99928,7.99928,0,0,0,248,264H48a7.99928,7.99928,0,0,0-7.15527,11.57764L56,305.88867v17.543A60.56973,60.56973,0,0,1,38.1416,366.54443ZM72,323.43164V312H96V296H68.94409l-7.99975-16H235.05566l-7.99975,16H152v16h72v11.43164A76.41708,76.41708,0,0,0,244.77441,376H192v16h65.044A59.3037,59.3037,0,0,1,264,420c0,1.3418-.06006,2.67346-.14746,4H224v16h36.57422A59.38062,59.38062,0,0,1,246.544,462.14209L236.68652,472H59.31348l-9.85743-9.85791A59.38363,59.38363,0,0,1,35.42578,440H120V424H32.14771C32.0603,422.67346,32,421.3418,32,420a59.20608,59.20608,0,0,1,17.456-42.14209A76.46877,76.46877,0,0,0,72,323.43164Z"/><rect x="120" y="296" width="16" height="16"/><rect x="80" y="376" width="16" height="16"/><rect x="112" y="376" width="64" height="16"/><rect x="136" y="424" width="72" height="16"/><rect x="280" y="344" width="24" height="16"/><rect x="296" y="384" width="40" height="16"/></svg>
