<svg id="filled_outline" height="512" viewBox="0 0 512 512" width="512" xmlns="http://www.w3.org/2000/svg" data-name="filled outline"><g fill="#7dafff"><path d="m123.722 173.959-35.722-133.959 56-16 28.364 104z"/><path d="m388.278 173.959 35.722-133.959-56-16-28.364 104z"/><path d="m184 120v-24.00007a71.99993 71.99993 0 0 1 71.99993-71.99993h.00014a71.99993 71.99993 0 0 1 71.99993 71.99993v24.00007h-32v-24a40 40 0 0 0 -40-40 40 40 0 0 0 -40 40v24z"/></g><path d="m255.99984 88h.00032a159.99984 159.99984 0 0 1 159.99984 159.99984v192.00016a0 0 0 0 1 0 0h-320a0 0 0 0 1 0 0v-192.00016a159.99984 159.99984 0 0 1 159.99984-159.99984z" fill="#548aff"/><path d="m368 240a112 112 0 1 1 -112-112 111.97372 111.97372 0 0 1 112 112z" fill="#6cdbe6"/><circle cx="256" cy="240" fill="#9ce6ed" r="88"/><path d="m304 321.89014v19.31986a112.16015 112.16015 0 0 1 -96 0v-19.31986a28.93918 28.93918 0 0 1 16-25.89014h64a28.93908 28.93908 0 0 1 16 25.89014z" fill="#ffb401"/><path d="m209.61126 235.62864a44.84528 44.84528 0 0 1 -17.61126-35.62857h25.37258a16 16 0 0 1 11.31371 4.68629l2.3253 2.3253z" fill="#ffa100"/><path d="m302.38874 235.62864a44.84528 44.84528 0 0 0 17.61126-35.62857h-25.37258a16 16 0 0 0 -11.31371 4.68629l-2.3253 2.3253z" fill="#ffa100"/><rect fill="#ffc431" height="112" rx="48" width="96" x="208" y="200"/><circle cx="192" cy="392" fill="#4976f2" r="16"/><circle cx="256" cy="392" fill="#4976f2" r="16"/><circle cx="320" cy="392" fill="#4976f2" r="16"/><path d="m416 440-24 48h-272l-24-48z" fill="#7dafff"/><path d="m248 256a8 8 0 0 0 -8-8h-8v8a7.99989 7.99989 0 0 0 8 8h8z"/><path d="m264 256v8h8a7.99993 7.99993 0 0 0 8-8v-8h-8a8.00009 8.00009 0 0 0 -8 8z"/><path d="m260 272h-8a4.00008 4.00008 0 0 0 -4 4v4a8 8 0 0 0 16 0v-4a4 4 0 0 0 -4-4z"/><path d="m136 240a120 120 0 1 0 120-120 120.13623 120.13623 0 0 0 -120 120zm160 95.99536a103.94435 103.94435 0 0 1 -80 0v-14.10669a20.831 20.831 0 0 1 5.32733-13.96264 55.82144 55.82144 0 0 0 69.34528 0 20.83078 20.83078 0 0 1 5.32739 13.96264zm-89.20483-114.71216a37.25749 37.25749 0 0 1 -5.90357-13.2832h15.96991a56.32188 56.32188 0 0 0 -10.06634 13.2832zm89.20483 42.7168a40 40 0 0 1 -80 0v-16a40 40 0 0 1 80 0zm64-24a104.011 104.011 0 0 1 -48 87.60181v-5.71314a36.74152 36.74152 0 0 0 -10.28577-25.604 55.67369 55.67369 0 0 0 10.28577-32.28467v-16c0-1.22119-.05322-2.42993-.13062-3.63184l.59888-.39941a52.73506 52.73506 0 0 0 23.53174-43.96875 8.00008 8.00008 0 0 0 -8-8h-25.37256a23.84254 23.84254 0 0 0 -16.9707 7.0293l-.92554.92553a55.85181 55.85181 0 0 0 -52.3761-2.70141 23.81581 23.81581 0 0 0 -14.98254-5.25342h-25.37256a8.00008 8.00008 0 0 0 -8 8 53.18535 53.18535 0 0 0 16.802 38.6145 56.08614 56.08614 0 0 0 -.802 9.3855v16a55.67326 55.67326 0 0 0 10.28577 32.28467 36.74152 36.74152 0 0 0 -10.28577 25.604v5.71314a103.988 103.988 0 1 1 160-87.60181zm-62.79224-29.87183a7.93662 7.93662 0 0 1 5.41968-2.12817h16.499a36.7257 36.7257 0 0 1 -11.14074 19.219 56.11312 56.11312 0 0 0 -10.77794-17.09083z"/><path d="m192 368a24 24 0 1 0 24 24 24.02718 24.02718 0 0 0 -24-24zm0 32a8 8 0 1 1 8-8 8.00917 8.00917 0 0 1 -8 8z"/><path d="m256 368a24 24 0 1 0 24 24 24.02718 24.02718 0 0 0 -24-24zm0 32a8 8 0 1 1 8-8 8.00917 8.00917 0 0 1 -8 8z"/><path d="m320 368a24 24 0 1 0 24 24 24.02718 24.02718 0 0 0 -24-24zm0 32a8 8 0 1 1 8-8 8.00917 8.00917 0 0 1 -8 8z"/><path d="m256 16a80.09041 80.09041 0 0 0 -80 80v4.29956c-.84448.45923-1.67932.93408-2.515 1.40723l-21.76674-79.81128a8.00028 8.00028 0 0 0 -9.916-5.58789l-56 16a8.00082 8.00082 0 0 0 -5.53226 9.7539l31.82283 119.33548a166.97949 166.97949 0 0 0 -24.09283 86.603v192a7.95475 7.95475 0 0 0 .85083 3.5752l-.0061.00292 24 48a7.99967 7.99967 0 0 0 7.15527 4.42188h272a7.99967 7.99967 0 0 0 7.15527-4.42188l24-48-.0061-.00292a7.954 7.954 0 0 0 .85083-3.5752v-192a166.97935 166.97935 0 0 0 -24.09277-86.603l31.82277-119.33548a8.00082 8.00082 0 0 0 -5.53223-9.7539l-56-16a8.00028 8.00028 0 0 0 -9.916 5.58789l-21.76677 79.81128c-.83569-.47315-1.67053-.948-2.515-1.40723v-4.29956a80.09041 80.09041 0 0 0 -80-80zm0 16a64.07967 64.07967 0 0 1 63.91125 60.64209 166.62915 166.62915 0 0 0 -16.81848-5.91431 47.9962 47.9962 0 0 0 -94.1856 0 166.62808 166.62808 0 0 0 -16.81842 5.91431 64.07967 64.07967 0 0 1 63.91125-60.64209zm29.00928 50.51392a168.633 168.633 0 0 0 -58.01862 0 31.98419 31.98419 0 0 1 58.01862 0zm-187.2544-36.98072 40.65723-11.6162 20.93207 76.74976a169.42462 169.42462 0 0 0 -35.29633 33.46387zm289.30078 434.4668h-262.11132l-16-32h294.11132zm-13.46777-446.083 40.65723 11.6162-26.293 98.59742a169.42344 169.42344 0 0 0 -35.29639-33.46387zm34.41211 214.083v184h-304v-184c0-83.81348 68.187-152 152-152s152 68.18652 152 152z"/></svg>