<svg height="512" viewBox="0 0 128 128" width="512" xmlns="http://www.w3.org/2000/svg"><g><g><path d="m77.9 6.5h-27.8a6 6 0 0 0 -6 6v26.17h39.8v-26.17a6 6 0 0 0 -6-6zm0 26.17h-27.8v-20.17h27.8z" fill="#fdd82e"/><path d="m106.654 24.192h-85.308a6 6 0 0 0 -6 6v61.875h97.308v-61.875a6 6 0 0 0 -6-6z" fill="#fdd82e"/><g fill="#eaeaf0"><path d="m67.665 49.827-2.709-7.199h-5.416l-2.709 7.199 2.417 6.423v25.442h6v-25.442z"/><path d="m86.146 43.3-1.146-.662v5.882l-2.85 1.15-2.84-1.15v-5.892l-1.162.671a8 8 0 0 0 -4 6.925 8.01 8.01 0 0 0 4 6.921 8.253 8.253 0 0 0 1 .483v22.422h6v-22.422a8.059 8.059 0 0 0 1-.48 8 8 0 0 0 4-6.921 8 8 0 0 0 -4.002-6.927z"/><path d="m42.352 42.628-3 3.091v18.281h6v-18.281z"/></g><path d="m46.852 61.305-9 .001v5.696l1.5 3.333v10.251h6v-10.251l1.5-3.333z" fill="#f7502f"/><path d="m15.346 81.692h97.308a0 0 0 0 1 0 0v27.808a12 12 0 0 1 -12 12h-73.308a12 12 0 0 1 -12-12v-27.808a0 0 0 0 1 0 0z" fill="#f7502f"/><path d="m32.996 81.692h6v24h-6z" fill="#fdd82e"/><path d="m31.496 89.192h9v9h-9z" fill="#d93922"/><path d="m89.004 81.692h6v24h-6z" fill="#fdd82e" transform="matrix(-1 0 0 -1 184.007 187.385)"/><path d="m87.504 89.192h9v9h-9z" fill="#d93922" transform="matrix(-1 0 0 -1 184.007 187.385)"/><path d="m15.346 75.692h97.308v6h-97.308z" fill="#ff9800"/><path d="m21.346 24.192h85.308a6 6 0 0 1 6 6v6a0 0 0 0 1 0 0h-97.308a0 0 0 0 1 0 0v-6a6 6 0 0 1 6-6z" fill="#ff9800"/></g><g fill="#051720"><path d="m15.35 62.774a1.75 1.75 0 0 0 1.75-1.75v-4.316a1.75 1.75 0 0 0 -3.5 0v4.316a1.749 1.749 0 0 0 1.75 1.75z"/><path d="m114.4 30.19a7.759 7.759 0 0 0 -7.75-7.75h-21v-9.94a7.759 7.759 0 0 0 -7.75-7.75h-5.317a1.75 1.75 0 0 0 0 3.5h5.317a4.254 4.254 0 0 1 4.25 4.25v9.94h-2.5v-9.94a1.749 1.749 0 0 0 -1.75-1.75h-27.8a1.749 1.749 0 0 0 -1.75 1.75v9.94h-2.5v-9.94a4.254 4.254 0 0 1 4.25-4.25h12.9a1.75 1.75 0 0 0 0-3.5h-12.9a7.759 7.759 0 0 0 -7.75 7.75v9.94h-21a7.759 7.759 0 0 0 -7.75 7.75v20.393a1.75 1.75 0 0 0 3.5 0v-12.641h93.8v36h-8.567a1.75 1.75 0 0 0 0 3.5h8.567v2.5h-93.8v-2.5h76.317a1.75 1.75 0 0 0 0-3.5h-6.517v-15.209c.039-.02.079-.043.121-.064a9.745 9.745 0 0 0 3.571-13.32 9.95 9.95 0 0 0 -3.571-3.567l-1.15-.66a1.75 1.75 0 0 0 -2.621 1.518v4.7l-1.1.443-1.09-.443v-4.71a1.751 1.751 0 0 0 -2.626-1.516l-1.158.67a9.745 9.745 0 0 0 .016 16.892l.108.059v15.207h-10.4v-17.375l2.3-6.122a1.756 1.756 0 0 0 0-1.229l-2.7-7.2a1.75 1.75 0 0 0 -1.64-1.136h-5.42a1.75 1.75 0 0 0 -1.64 1.134l-2.71 7.2a1.756 1.756 0 0 0 0 1.233l2.31 6.122v17.373h-10.4v-3.227l1.346-3a1.757 1.757 0 0 0 .154-.715v-5.69a1.744 1.744 0 0 0 -1.5-1.725v-13.865a1.75 1.75 0 0 0 -.5-1.219l-3-3.09a1.8 1.8 0 0 0 -2.511 0l-3 3.09a1.749 1.749 0 0 0 -.489 1.219v13.865a1.743 1.743 0 0 0 -1.5 1.725v5.69a1.756 1.756 0 0 0 .153.717l1.347 3v3.227h-20.5v-6.68a1.75 1.75 0 0 0 -3.5 0v42.236a13.765 13.765 0 0 0 13.75 13.75h73.308a13.765 13.765 0 0 0 13.742-13.75zm-34.587 25.821a7.289 7.289 0 0 1 -.786-.375 6.242 6.242 0 0 1 -1.467-9.648v2.532a1.751 1.751 0 0 0 1.092 1.622l2.841 1.15a1.754 1.754 0 0 0 1.313 0l2.849-1.15a1.753 1.753 0 0 0 1.095-1.622v-2.515a6.331 6.331 0 0 1 .816 1.1 6.241 6.241 0 0 1 0 6.239 6.138 6.138 0 0 1 -2.25 2.266 7.944 7.944 0 0 1 -.828.4 1.751 1.751 0 0 0 -1.088 1.62v16.312h-2.5v-16.312a1.749 1.749 0 0 0 -1.087-1.619zm-18.925-.378-2.188-5.803 2.051-5.45h3l2.044 5.45-2.18 5.805a1.77 1.77 0 0 0 -.111.615v17.692h-2.504v-17.692a1.755 1.755 0 0 0 -.112-.617zm-18.538-10.49 1.25 1.287v13.13h-2.5v-13.13zm-1.4 24.48-1.346-3v-3.563h5.5v3.565l-1.347 3a1.756 1.756 0 0 0 -.153.717v3.6h-2.504v-3.6a1.757 1.757 0 0 0 -.154-.719zm10.9-55.373h24.3v8.19h-24.3zm-34.75 20.192v-4.252a4.255 4.255 0 0 1 4.25-4.25h85.3a4.255 4.255 0 0 1 4.25 4.25v4.252zm77.654 56.5v5.5h-5.5v-5.5zm-4 9h2.5v4h-2.5zm2.5-12.5h-2.5v-4h2.5zm-54.5 3.5v5.5h-5.5v-5.5zm-4 9h2.5v4h-2.5zm2.5-12.5h-2.5v-4h2.5zm73.646 22.058a10.261 10.261 0 0 1 -10.25 10.25h-73.304a10.261 10.261 0 0 1 -10.246-10.25v-26.058h14.15v4.025a1.745 1.745 0 0 0 -1.5 1.725v9a1.745 1.745 0 0 0 1.5 1.726v5.772a1.749 1.749 0 0 0 1.75 1.75h6a1.749 1.749 0 0 0 1.75-1.75v-5.773a1.745 1.745 0 0 0 1.5-1.725v-9a1.745 1.745 0 0 0 -1.5-1.724v-4.026h46.5v4.026a1.745 1.745 0 0 0 -1.5 1.724v9a1.745 1.745 0 0 0 1.5 1.725v5.773a1.749 1.749 0 0 0 1.75 1.75h6a1.749 1.749 0 0 0 1.75-1.75v-5.772a1.745 1.745 0 0 0 1.5-1.726v-9a1.745 1.745 0 0 0 -1.5-1.725v-4.025h14.15z"/><path d="m108.4 59.25v-7a1.75 1.75 0 0 0 -3.5 0v7a1.75 1.75 0 0 0 3.5 0z"/><path d="m76.012 96.442h-24.024a1.75 1.75 0 0 0 0 3.5h24.024a1.75 1.75 0 0 0 0-3.5z"/></g></g></svg>