<svg height="512" viewBox="0 0 64 64" width="512" xmlns="http://www.w3.org/2000/svg"><g id="Icons"><g><g><path d="m48 49h-32c-.356 0-.686-.189-.865-.498s-.18-.688-.003-.998l16-28c.355-.623 1.381-.623 1.736 0l16 28c.177.31.176.689-.003.998s-.509.498-.865.498zm-30.277-2h28.554l-14.277-24.984z" fill="#c80a50"/></g><g><g><path d="m34.848 27h2.304l-1.143-2h-2.304z" fill="#a00028"/></g><g><path d="m42.74 36.779c-.63.239-1.234.53-1.808.867l5.345 9.354h-11.235c-.027.33-.042.663-.042 1s.015.67.042 1h12.958c.356 0 .686-.189.865-.498s.18-.688.003-.998z" fill="#a00028"/></g><g><path d="m26.848 27h2.304l1.143-2h-2.304z" fill="#a00028"/></g><g><path d="m29 47h-11.277l4.148-7.258-.318-.636c-.226-.453-.611-.794-1.067-.97l-5.354 9.369c-.177.31-.176.689.003.998.179.308.509.497.865.497h13z" fill="#a00028"/></g></g><g><path d="m32 24 6.211-12.422c.737-1.474 2.841-1.474 3.578 0l6.211 12.422z" fill="#0a5078"/></g><g><path d="m32 24h9l-4.909-8.182z" fill="#00325a"/></g><g><path d="m43 14-1.211-2.422c-.737-1.474-2.841-1.474-3.578 0l-1.211 2.422z" fill="#00a0c8"/></g><g><path d="m16 24 10.285-17.142c.777-1.295 2.653-1.295 3.43 0l10.285 17.142z" fill="#0a5078"/></g><g><path d="m49 26h-34c-.552 0-1-.448-1-1 0-.552.448-1 1-1h34c.552 0 1 .448 1 1 0 .552-.448 1-1 1z" fill="#fab400"/></g><g><path d="m32.8 12-3.085-5.142c-.777-1.295-2.653-1.295-3.43 0l-3.085 5.142z" fill="#00a0c8"/></g><g><circle cx="45" cy="7" fill="#fab400" r="3"/></g><g><path d="m22 42-1.447-2.894c-.339-.678-1.032-1.106-1.789-1.106h-5.528c-.758 0-1.45.428-1.789 1.106l-1.447 2.894h-4c-1.105 0-2 .895-2 2v12c0 1.105.895 2 2 2h20c1.105 0 2-.895 2-2v-12c0-1.105-.895-2-2-2z" fill="#0a5078"/></g><g><circle cx="16" cy="51" fill="#00325a" r="6"/></g><g><path d="m18 40h-4c-.552 0-1 .448-1 1 0 .552.448 1 1 1h4c.552 0 1-.448 1-1 0-.552-.448-1-1-1z" fill="#00a0c8"/></g><g><circle cx="16" cy="50" fill="#00a0c8" r="6"/></g><g><circle cx="16" cy="50" fill="#c80a50" r="4"/></g><g><circle cx="25" cy="45" fill="#fab400" r="1"/></g><g><g><circle cx="48" cy="48" fill="#0a5078" r="12"/></g><g><circle cx="48" cy="48" fill="#00a0c8" r="10"/></g><g><path d="m53.707 43.293c-.289-.289-.727-.373-1.101-.212l-4.482 1.921c-.041-.001-.083-.002-.124-.002-2.209 0-4 1.791-4 4 0 .042.001.083.002.124l-1.921 4.482c-.161.375-.077.812.212 1.101.191.191.447.293.707.293.133 0 .267-.026.394-.081l4.482-1.921c.041.001.083.002.124.002 2.209 0 4-1.791 4-4 0-.042-.001-.083-.002-.124l1.921-4.482c.161-.375.077-.812-.212-1.101z" fill="#0082aa"/></g><path d="m53.707 42.293c-.289-.289-.727-.374-1.101-.212l-7 3c-.305.131-.525.404-.588.729-.063.326.04.662.275.896l4 4c.189.19.444.294.707.294.063 0 .126-.006.189-.018.326-.063.6-.283.73-.589l3-7c.161-.374.077-.811-.212-1.1z" fill="#c80a50"/><path d="m50.707 49.293-4-4c-.235-.235-.572-.336-.896-.275-.326.063-.6.283-.73.589l-3 7c-.161.375-.077.812.212 1.101.191.19.447.292.707.292.133 0 .267-.026.394-.081l7-3c.305-.131.525-.404.588-.729.063-.327-.04-.663-.275-.897z" fill="#0a5078"/><g><circle cx="48" cy="48" fill="#fab400" r="4"/></g><g><circle cx="48" cy="48" fill="#dc9600" r="2"/></g><g fill="#fab400"><path d="m48 38c-.338 0-.671.017-1 .05v.95c0 .552.448 1 1 1s1-.448 1-1v-.95c-.329-.033-.662-.05-1-.05z"/><path d="m48 56c-.552 0-1 .448-1 1v.95c.329.033.662.05 1 .05s.671-.017 1-.05v-.95c0-.552-.448-1-1-1z"/><path d="m38.05 49h.95c.552 0 1-.448 1-1s-.448-1-1-1h-.95c-.033.329-.05.662-.05 1s.017.671.05 1z"/><path d="m56 48c0 .552.448 1 1 1h.95c.033-.329.05-.662.05-1s-.017-.671-.05-1h-.95c-.552 0-1 .448-1 1z"/></g></g></g></g></svg>